<svg xmlns="http://www.w3.org/2000/svg" viewBox="0 0 15.99986 15.9832"><defs><style>.cls-1{fill:#f4ede9;}.cls-2{fill:#e8e2e2;}.cls-3{fill:#3a6531;}.cls-4{fill:#1a1f1c;}.cls-5{fill:#f5e0cd;}.cls-6{fill:#dabcaa;}.cls-7{fill:#713c1a;}.cls-8{fill:#e1c5b6;}.cls-9{fill:#a6112f;}.cls-10{fill:#90290e;}.cls-11{fill:#b08874;}.cls-12{fill:#231f20;}.cls-13{fill:#731800;}.cls-14,.cls-16,.cls-17,.cls-18,.cls-19,.cls-22{fill:none;}.cls-14{stroke:#b08874;stroke-width:0.04486px;}.cls-14,.cls-16,.cls-17,.cls-19,.cls-22{stroke-miterlimit:10;}.cls-15{fill:#333;}.cls-16{stroke:#3a6531;stroke-width:0.05247px;}.cls-17,.cls-19{stroke:#000;}.cls-17{stroke-width:0.03986px;}.cls-19,.cls-22{stroke-width:0.04996px;}.cls-20{fill:#cb8c84;}.cls-21{fill:#4a0f00;}.cls-22{stroke:#e1c5b6;}.cls-23{fill:#ddd7d7;}.cls-24{fill:#54112f;}</style></defs><g id="Layer_2" data-name="Layer 2"><g id="outline"><path class="cls-1" d="M9.22007,7.46524a.38.38,0,0,0,.39519.36323l.0005.03647a1.28194,1.28194,0,0,1-.2583-.024.82142.82142,0,0,1-.44566-.23233.03992.03992,0,0,1-.01149-.03047A1.00929,1.00929,0,0,1,9.34647,7.101a.64132.64132,0,0,1,.26729-.056l.0015.05745A.37994.37994,0,0,0,9.22007,7.46524Z"/><path class="cls-2" d="M7.77468,10.68477c-.08094-.02948-.23982-.16687-.20385-.27529l.001-.01049c.23232.02848.46165.005.55707-.17686a.63366.63366,0,0,1,.45815.08343h.0005a1.14268,1.14268,0,0,1,.14089.08794C8.70046,10.72024,8.0005,10.76771,7.77468,10.68477Z"/><path class="cls-3" d="M9.62575,7.744a.27977.27977,0,1,0-.29627-.27929A.28823.28823,0,0,0,9.62575,7.744Zm-.01049-.64151a.36429.36429,0,1,1-.39519.36272A.37981.37981,0,0,1,9.61526,7.10252Z"/><ellipse class="cls-4" cx="6.15392" cy="7.42927" rx="0.29627" ry="0.27929"/><path class="cls-5" d="M8.1289,10.22213c-.02348.04446-.3842-.20834-.40918-.2613a1.12421,1.12421,0,0,1,.00449-.47913c.05946,0,.11991-.002.18137-.0055a3.7116,3.7116,0,0,0,1.96249-.87033.9464.9464,0,0,0,.3827-.16388,1.2911,1.2911,0,0,0,.3982-.595,6.44321,6.44321,0,0,0,.23532-.83736L11.0012,6.506s.52709-.32525.40519-1.347c0,0,.60553-1.1696-1.81011-2.39665l-.022-.008A1.42672,1.42672,0,0,0,9.337,1.35893,1.31,1.31,0,0,0,7.6083.82484a.53562.53562,0,0,0-.14938.25231l-.017-.0065c-.55707.1304-.54008-.009-.99174.9203a.89428.89428,0,0,0-.05645.648l-.07744.02148A3.8773,3.8773,0,0,0,4.132,4.482.94635.94635,0,0,0,4.07,5.71859l.012.00149a1.63788,1.63788,0,0,0,.08693.7859c.07944-.2583.21184-.18386.22533-.17536a.90381.90381,0,0,0-.13989.02548.27767.27767,0,0,0-.004.14988A3.1047,3.1047,0,0,0,5.459,8.70929a3.73129,3.73129,0,0,0,1.72368.73394c.0015.02647.02748.53109-.30327.653,0,0-.43416-.06944-.42917.09793a.94492.94492,0,0,1-.00949.11141h-.002a1.76168,1.76168,0,0,0-.81987.20934,8.1028,8.1028,0,0,0-1.25454,2.71891,8.04351,8.04351,0,0,0-.18136,1.26853s.31926.41468.686.83386l-.002.0045a7.98958,7.98958,0,1,1,5.35289.33274l-.002-.00649A26.46026,26.46026,0,0,0,9.71818,10.989c-.19285-.48113-1.10515-.678-1.13063-.68348h-.0005A.63366.63366,0,0,0,8.1289,10.22213Z"/><path class="cls-6" d="M5.97756,15.47309l.16087.21334.07.09293c-.11391-.02648-.22683-.055-.33924-.08643A.77165.77165,0,0,1,5.97756,15.47309Z"/><path class="cls-7" d="M9.70319,4.14329a.09479.09479,0,0,0-.06644-.042S9.66123,4.11632,9.70319,4.14329ZM11.40639,5.159c.1219,1.02172-.40519,1.347-.40519,1.347a.15474.15474,0,0,0,.003-.08643.09014.09014,0,0,0-.033-.04047,1.85931,1.85931,0,0,0-.79889-1.247c.06595.07144.11192.1299.11891.13889a5.79359,5.79359,0,0,0-1.74416-.59355c-.22532-.07494-.28578-.19135-.28428-.29677l-.013-.0005a5.27717,5.27717,0,0,0-3.854,1.95051h-.0015c-.01349-.0085-.14589-.08294-.22533.17536a1.63788,1.63788,0,0,1-.08693-.7859L4.07,5.71859A.94635.94635,0,0,1,4.132,4.482,3.8773,3.8773,0,0,1,6.3163,2.66043L6.39374,2.639a.89428.89428,0,0,1,.05645-.648c.45166-.92929.43467-.7899.99174-.9203l.017.0065A.53562.53562,0,0,1,7.6083.82484,1.31,1.31,0,0,1,9.337,1.35893a1.42672,1.42672,0,0,1,.23731,1.39543l.022.008C12.01192,3.98941,11.40639,5.159,11.40639,5.159Z"/><path class="cls-6" d="M7.71972,9.96083c.025.053.3857.30576.40918.2613-.09542.18186-.32475.20534-.55707.17686a3.50763,3.50763,0,0,1-.51061-.11541c-.07194-.02-.3917-.10942-.18186-.18736.33075-.1219.30477-.62652.30327-.653a3.54447,3.54447,0,0,0,.54158.03847A1.12421,1.12421,0,0,0,7.71972,9.96083Z"/><path class="cls-3" d="M6.45019,7.42927a.29679.29679,0,1,0-.29627.27929A.28791.28791,0,0,0,6.45019,7.42927Zm.10942.0005a.39638.39638,0,1,1-.3952-.36272A.38.38,0,0,1,6.55961,7.42977Z"/><path class="cls-8" d="M10.29124,5.27093c-.007-.009-.053-.06745-.11891-.13889a1.85931,1.85931,0,0,1,.79889,1.247.24044.24044,0,0,0-.08643-.03248A4.152,4.152,0,0,0,9.342,6.30114,5.90373,5.90373,0,0,1,7.84212,6.501a12.0726,12.0726,0,0,1-1.281-.35023,4.12668,4.12668,0,0,0-1.894.14339,1.88932,1.88932,0,0,1-.27129.03648,5.27717,5.27717,0,0,1,3.854-1.95051l.013.0005c-.0015.10542.059.22183.28428.29677A5.79359,5.79359,0,0,1,10.29124,5.27093Z"/><path class="cls-5" d="M5.48743,14.61026l-.27279-.32076s-.20734-.2613.27279-.97225A3.96873,3.96873,0,0,0,5.48743,14.61026Z"/><path class="cls-9" d="M9.355,15.87029a8.07613,8.07613,0,0,1-2.28624.058c-.07045-.17737.056-5.20751.056-5.20751l-.0025-.021a.49806.49806,0,0,0,.44865-.29028c-.036.10842.12291.24581.20385.27529.22582.08294.92578.03547.95376-.29127a1.14268,1.14268,0,0,0-.14089-.08794c.02548.0055.93778.20235,1.13063.68348A26.46026,26.46026,0,0,1,10.2178,15.667l.002.00649A7.77961,7.77961,0,0,1,9.355,15.87029Z"/><path class="cls-1" d="M5.76972,7.42977a.37987.37987,0,0,0,.39469.36322l-.0005.03647A.85181.85181,0,0,1,6.046,7.82a.72147.72147,0,0,1-.36322-.1329,1.26643,1.26643,0,0,1-.19385-.20984.2079.2079,0,0,1,.05446-.16687A1.12406,1.12406,0,0,1,5.68528,7.168a.81367.81367,0,0,1,.48063-.15838l-.0015.05746A.37981.37981,0,0,0,5.76972,7.42977Z"/><path class="cls-10" d="M5.97756,15.18582l.16537.19485a.199.199,0,0,0-.16537.09242.77165.77165,0,0,0-.10842.21984q-.12516-.03449-.24781-.07345A1.1,1.1,0,0,1,5.97756,15.18582Z"/><path d="M5.04277,6.53646c-.13339.68247.15189,1.70019.94178,1.8151a2.91129,2.91129,0,0,0,.57506.02548c.99673-.2603.76991-1.51783.76991-1.51783-.05746-.31826-.40969-.40619-.69-.45115a3.37718,3.37718,0,0,0-1.28052-.013C5.30707,6.40756,5.05776,6.461,5.04277,6.53646Zm4.8253,2.06941a1.80867,1.80867,0,0,1-.54209.01649,1.27317,1.27317,0,0,1-.83136-.33924,1.133,1.133,0,0,1-.2533-.72545c-.008-.19984-.01349-.44815-.19385-.53409-.17187-.08193-.37621.065-.45066.24032A3.84039,3.84039,0,0,0,7.4809,7.822a1.1227,1.1227,0,0,1-.89781.7874A1.49332,1.49332,0,0,1,4.95984,7.50971c-.08843-.28028-.1334-.57256-.21634-.85484a.19747.19747,0,0,0-.06645-.11392.20255.20255,0,0,0-.10641-.024c-.10642-.0035-.21334-.00749-.32026-.011a.27767.27767,0,0,1,.004-.14988.90381.90381,0,0,1,.13989-.02548h.0005l.0005.00049.0005-.00049a1.88932,1.88932,0,0,0,.27129-.03648,4.12668,4.12668,0,0,1,1.89405-.14339,12.0726,12.0726,0,0,0,1.281.35023A5.90373,5.90373,0,0,0,9.342,6.30114a4.152,4.152,0,0,1,1.54282.04546.24044.24044,0,0,1,.08643.03248c.01049.041.02049.08343.03.1269l-.11691.50361A6.44321,6.44321,0,0,1,10.649,7.847a1.2911,1.2911,0,0,1-.3982.595A.9464.9464,0,0,1,9.86807,8.60587Zm.7784-1.49086a.85269.85269,0,0,0-.008-.42817c-.041-.09942-.41219-.14539-.49612-.15588a4.96888,4.96888,0,0,0-1.00973.021c-.34873.04646-.651.14588-.65549.34273a3.08574,3.08574,0,0,0,.08393.84935,1.30844,1.30844,0,0,0,.26979.45515,1.14931,1.14931,0,0,0,1.10715.1314c.35723-.12391.46715-.43067.58506-.75242A3.04374,3.04374,0,0,0,10.64647,7.115Z"/><path class="cls-8" d="M5.25661,7.06705A1.771,1.771,0,0,1,6.9593,6.92316a.20718.20718,0,0,0-.048-.14239.6044.6044,0,0,0-.46864-.1294,1.82647,1.82647,0,0,0-.58655.09093,2.11263,2.11263,0,0,0-.43517.20884C5.36453,6.98661,5.31357,7.03308,5.25661,7.06705Zm1.40192.046a.59637.59637,0,0,0-.54108-.21833.74845.74845,0,0,0-.59454.31026.44578.44578,0,0,1-.11592.15538l.03148.048c.01649.023.033.046.05046.06894a1.26643,1.26643,0,0,0,.19385.20984A.72147.72147,0,0,0,6.046,7.82a.85181.85181,0,0,0,.11791.00949,1.28109,1.28109,0,0,0,.2583-.024.82137.82137,0,0,0,.44566-.23232.03991.03991,0,0,0,.01149-.03048.52307.52307,0,0,0-.06944-.17136c-.02349-.051-.04947-.10093-.07794-.14939C6.71,7.184,6.68152,7.15,6.65853,7.113Zm.671-.2538S7.55634,8.11674,6.55961,8.377a2.91129,2.91129,0,0,1-.57506-.02548c-.78989-.11491-1.07517-1.13263-.94178-1.8151.015-.07544.2643-.1289.31626-.14139a3.37718,3.37718,0,0,1,1.28052.013C6.91983,6.453,7.27206,6.54095,7.32952,6.85921Z"/><path class="cls-8" d="M10.63848,6.68684a.85269.85269,0,0,1,.008.42817l-.1234-.01249c-.057-.03447-.10792-.08044-.16438-.11591a2.11282,2.11282,0,0,0-.43516-.20884A1.82655,1.82655,0,0,0,9.337,6.68684a1.72157,1.72157,0,0,0-.18686.007L9.13263,6.552a4.96888,4.96888,0,0,1,1.00973-.021C10.22629,6.54145,10.59751,6.58742,10.63848,6.68684Z"/><path class="cls-11" d="M6.732,7.22193c.02847.04846.05445.09843.07794.14939a.52307.52307,0,0,1,.06944.17136,1.00585,1.00585,0,0,0-.44615-.47663.64176.64176,0,0,0-.2673-.05646.81367.81367,0,0,0-.48063.15838,1.12406,1.12406,0,0,0-.14189.14239.2079.2079,0,0,0-.05446.16687c-.01749-.023-.034-.046-.05046-.06894l-.03148-.048a.44578.44578,0,0,0,.11592-.15538.74845.74845,0,0,1,.59454-.31026.59637.59637,0,0,1,.54108.21833C6.68152,7.15,6.71,7.184,6.732,7.22193Z"/><path class="cls-12" d="M6.4427,6.65137a.6044.6044,0,0,1,.46864.1294.20718.20718,0,0,1,.048.14239,1.771,1.771,0,0,0-1.70269.14389c.057-.034.10792-.08044.16437-.11591a2.11263,2.11263,0,0,1,.43517-.20884A1.82647,1.82647,0,0,1,6.4427,6.65137Z"/><ellipse class="cls-4" cx="9.62575" cy="7.46474" rx="0.29627" ry="0.27929"/><path class="cls-1" d="M6.86787,7.57316a.82137.82137,0,0,1-.44566.23232,1.28109,1.28109,0,0,1-.2583.024l.0005-.03647a.36428.36428,0,1,0,0-.72594l.0015-.05746a.64176.64176,0,0,1,.2673.05646,1.00585,1.00585,0,0,1,.44615.47663A.03991.03991,0,0,1,6.86787,7.57316Z"/><path class="cls-13" d="M6.14293,15.38067a.88677.88677,0,0,1,0,.30226l-.0045.0035-.16087-.21334A.199.199,0,0,1,6.14293,15.38067Z"/><path class="cls-11" d="M10.25677,7.23992a.44531.44531,0,0,0,.11591.15588l-.03147.048c-.01649.023-.033.046-.05047.069a.20732.20732,0,0,0-.05445-.16687,1.09093,1.09093,0,0,0-.1419-.14239.81358.81358,0,0,0-.48063-.15838.64132.64132,0,0,0-.26729.056,1.00929,1.00929,0,0,0-.44616.47714.52292.52292,0,0,1,.06945-.17137c.02348-.051.04946-.10092.07794-.14939.022-.038.05046-.07194.07344-.10891a.59639.59639,0,0,1,.54109-.21834A.74871.74871,0,0,1,10.25677,7.23992Z"/><path class="cls-9" d="M5.48743,13.31725c-.48013.711-.27279.97225-.27279.97225l.27279.32076A3.96873,3.96873,0,0,1,5.48743,13.31725Zm1.63725-2.59651s-.12641,5.03014-.056,5.20751a8.1189,8.1189,0,0,1-.86034-.14889l-.07-.09293.0045-.0035a.88677.88677,0,0,0,0-.30226l-.16537-.19485a1.1,1.1,0,0,0-.35623.43366,7.69056,7.69056,0,0,1-.75442-.27878l.002-.0045c-.36672-.41918-.686-.83386-.686-.83386a8.04351,8.04351,0,0,1,.18136-1.26853A8.1028,8.1028,0,0,1,5.61883,10.5149a1.76168,1.76168,0,0,1,.81987-.20934h.002a.2176.2176,0,0,0,.016.11741.65.65,0,0,0,.66549.27679Z"/><polygon points="4.396 6.331 4.395 6.331 4.395 6.331 4.396 6.331"/><path class="cls-1" d="M9.61526,7.82847a.36425.36425,0,1,0,0-.726l-.0015-.05745a.81358.81358,0,0,1,.48063.15838,1.09093,1.09093,0,0,1,.1419.14239.20732.20732,0,0,1,.05445.16687,1.26637,1.26637,0,0,1-.19385.20984.72155.72155,0,0,1-.36322.13289.85183.85183,0,0,1-.11791.0095Z"/><path class="cls-8" d="M7.18263,9.44323A3.73129,3.73129,0,0,1,5.459,8.70929,3.1047,3.1047,0,0,1,4.25038,6.506c.10692.0035.21384.00749.32026.011a.20255.20255,0,0,1,.10641.024.19747.19747,0,0,1,.06645.11392c.08294.28228.12791.57456.21634.85484A1.49332,1.49332,0,0,0,6.58309,8.60937,1.1227,1.1227,0,0,0,7.4809,7.822a3.84039,3.84039,0,0,1,.11591-.55807c.07445-.17537.27879-.32225.45066-.24032.18036.08594.18585.33425.19385.53409a1.133,1.133,0,0,0,.2533.72545,1.27317,1.27317,0,0,0,.83136.33924,1.80867,1.80867,0,0,0,.54209-.01649,3.7116,3.7116,0,0,1-1.96249.87033c-.06146.0035-.12191.0055-.18137.0055A3.54447,3.54447,0,0,1,7.18263,9.44323Z"/><path class="cls-2" d="M7.06122,10.28358a3.50763,3.50763,0,0,0,.51061.11541l-.001.01049a.49806.49806,0,0,1-.44865.29028.65.65,0,0,1-.66549-.27679.2176.2176,0,0,1-.016-.11741.94492.94492,0,0,0,.00949-.11141c-.005-.16737.42917-.09793.42917-.09793C6.66952,10.17416,6.98928,10.2636,7.06122,10.28358Z"/><path class="cls-12" d="M9.337,6.68684a1.82655,1.82655,0,0,1,.58655.09093,2.11282,2.11282,0,0,1,.43516.20884c.05646.03547.10742.08144.16438.11591a1.771,1.771,0,0,0-1.7027-.14389.20714.20714,0,0,1,.048-.14239.414.414,0,0,1,.28178-.1224A1.72157,1.72157,0,0,1,9.337,6.68684Z"/><path class="cls-8" d="M8.82037,6.95863a1.771,1.771,0,0,1,1.7027.14389l.1234.01249a3.04374,3.04374,0,0,1-.1234.46315c-.11791.32175-.22783.62851-.58506.75242a1.14931,1.14931,0,0,1-1.10715-.1314A1.30844,1.30844,0,0,1,8.56107,7.744a3.08574,3.08574,0,0,1-.08393-.84935c.00449-.19685.30676-.29627.65549-.34273l.01749.14189a.414.414,0,0,0-.28178.1224A.20714.20714,0,0,0,8.82037,6.95863Zm.84186-.02848a.59639.59639,0,0,0-.54109.21834c-.023.037-.05146.07094-.07344.10891-.02848.04847-.05446.09843-.07794.14939a.52292.52292,0,0,0-.06945.17137.03992.03992,0,0,0,.01149.03047.82142.82142,0,0,0,.44566.23233,1.28194,1.28194,0,0,0,.2583.024.85183.85183,0,0,0,.11791-.0095.72155.72155,0,0,0,.36322-.13289,1.26637,1.26637,0,0,0,.19385-.20984c.01749-.023.034-.046.05047-.069l.03147-.048a.44531.44531,0,0,1-.11591-.15588A.74871.74871,0,0,0,9.66223,6.93015Z"/><path class="cls-14" d="M10.35185,7.39133a.44213.44213,0,0,1-.11579-.15543.74852.74852,0,0,0-.5946-.30981.59647.59647,0,0,0-.54139.218c-.02253.03721-.0512.071-.07341.109-.02844.04854-.05406.09873-.07793.14967-.02056.04387-.09819.16306-.05764.20158a.82408.82408,0,0,0,.44537.23252,1.13627,1.13627,0,0,0,.37624.01427.71972.71972,0,0,0,.36312-.13267,1.46019,1.46019,0,0,0,.24474-.2791Z"/><path class="cls-15" d="M10.265,7.50792c-.01806-.15164-.17651-.2167-.27514-.319a.56885.56885,0,0,0-.418-.12024,1.09351,1.09351,0,0,0-.68775.50727l-.009-.00455a.7119.7119,0,0,1,.69507-.5574,1.32606,1.32606,0,0,1,.45849.11007.49012.49012,0,0,1,.17676.15921.21634.21634,0,0,1,.06934.22568Z"/><ellipse class="cls-16" cx="9.59416" cy="7.46116" rx="0.39507" ry="0.36308"/><ellipse class="cls-17" cx="9.60479" cy="7.46052" rx="0.29627" ry="0.27944"/><path class="cls-18" d="M8.79964,6.95425a1.77073,1.77073,0,0,1,1.70242.14384c-.05673-.034-.10788-.08014-.16435-.11555a2.0977,2.0977,0,0,0-.4353-.209,1.81354,1.81354,0,0,0-.5861-.091.6059.6059,0,0,0-.4688.12922A.20736.20736,0,0,0,8.79964,6.95425Z"/><path class="cls-11" d="M8.03355,8.26339a.22706.22706,0,0,0-.23243-.05417.779.779,0,0,0-.251.05417.79223.79223,0,0,1,.24512-.10361A.25118.25118,0,0,1,8.03355,8.26339Z"/><path class="cls-19" d="M5.02189,6.53217c.01478-.07534.26447-.12906.31614-.14146a3.38678,3.38678,0,0,1,1.28073.01285c.28027.04525.63233.13291.68975.45132,0,.00006.22672,1.25747-.76967,1.51773a2.91455,2.91455,0,0,1-.575-.02534C5.17367,8.23247,4.88836,7.21471,5.02189,6.53217Z"/><path class="cls-19" d="M8.45646,6.89033a3.09829,3.09829,0,0,0,.08364.84959,1.30375,1.30375,0,0,0,.27011.45517,1.14932,1.14932,0,0,0,1.10711.13105c.357-.12394.46683-.43052.58474-.75244a1.79665,1.79665,0,0,0,.11557-.891c-.04094-.09966-.41222-.14528-.49639-.15593C9.879,6.49609,8.466,6.46264,8.45646,6.89033Z"/><path class="cls-18" d="M4.64631,6.2901a4.11882,4.11882,0,0,1,1.89381-.14375,11.95557,11.95557,0,0,0,1.28136.3502,5.91021,5.91021,0,0,0,1.49971-.19972,4.16764,4.16764,0,0,1,1.54285.04533c.04759.01046.102.02763.11914.07325a.15085.15085,0,0,1-.00287.0863l-.117.50369a6.40371,6.40371,0,0,1-.235.83725,1.29288,1.29288,0,0,1-.39859.595,1.3175,1.3175,0,0,1-.92479.18053,1.27221,1.27221,0,0,1-.83115-.33952,1.13239,1.13239,0,0,1-.25325-.72531c-.00793-.19988-.01348-.44791-.19408-.53392-.17193-.08189-.37607.065-.4505.24032a3.83461,3.83461,0,0,0-.11581.558,1.12342,1.12342,0,0,1-.89808.7876,1.49372,1.49372,0,0,1-1.623-1.09983c-.08839-.28039-.13335-.57278-.21664-.85473a.19639.19639,0,0,0-.066-.11406A.20153.20153,0,0,0,4.54991,6.513l-.32022-.01139a.27554.27554,0,0,1,.00406-.1497C4.3702,6.31393,4.50784,6.3259,4.64631,6.2901Z"/><path class="cls-20" d="M7.5001,8.86525a2.0461,2.0461,0,0,0,.65771,0A.51149.51149,0,0,1,7.5001,8.86525Z"/><path class="cls-20" d="M7.55015,8.99074a4.37422,4.37422,0,0,1,.4834,0A.37952.37952,0,0,1,7.55015,8.99074Z"/><path class="cls-6" d="M4.22959,6.50158a2.91136,2.91136,0,0,0,1.2168,2.18807l.00293.00205a3.82489,3.82489,0,0,0,2.43457.76517l-.001.00009a3.40634,3.40634,0,0,0,1.98291-.87631,3.42057,3.42057,0,0,1-1.979.90591l-.00122.00009a3.649,3.649,0,0,1-2.459-.7684l.00269.00183A2.92709,2.92709,0,0,1,4.22959,6.50158Z"/><path class="cls-21" d="M8.2291,4.38066a8.80445,8.80445,0,0,0-2.12426.59144,4.96669,4.96669,0,0,0-1.6897,1.3818l-.03052.03955-.03784-.02634c-.05713-.03991-.12134.04908-.15357.1482l-.04443.13635-.0437-.131a1.74376,1.74376,0,0,1,.001-1.08328l.00976.00247A1.8925,1.8925,0,0,0,4.191,6.48229l-.08789.00537a.392.392,0,0,1,.08447-.1673A.16646.16646,0,0,1,4.402,6.28615l-.06811.01315a4.71438,4.71438,0,0,1,1.75513-1.36,4.84859,4.84859,0,0,1,2.1394-.56857Z"/><path class="cls-21" d="M8.34409,4.13726a.37907.37907,0,0,0-.05737.31424.39867.39867,0,0,0,.25293.18078L8.53477,4.631c.303.07349.59594.176.90039.24a2.09383,2.09383,0,0,1,.87231.36368l-.07519.06351c-.07764-.09192-.15039-.19272-.23682-.27857a.59535.59535,0,0,0-.29761-.19278l-.001-.00995a.5096.5096,0,0,1,.34423.15256,1.73635,1.73635,0,0,1,.26905.26828l.26684.3559-.34228-.29236A2.9458,2.9458,0,0,0,9.42,4.92211a5.00923,5.00923,0,0,0-.90234-.20679L8.516,4.715l-.00342-.00109a.422.422,0,0,1-.28516-.24076.34242.34242,0,0,1,.10913-.34237Z"/><path class="cls-21" d="M10.15342,5.12322a2.10851,2.10851,0,0,1,.8623,1.37076l-.05444-.0232a1.19626,1.19626,0,0,0,.38843-.90274A3.61013,3.61013,0,0,0,11.245,4.53517l.00952-.00292a2.553,2.553,0,0,1,.19263,1.04156,1.25613,1.25613,0,0,1-.44775.95874l-.043.032-.01172-.05533a2.1105,2.1105,0,0,0-.79566-1.377Z"/><path class="cls-21" d="M11.381,5.15233a1.05287,1.05287,0,0,0-.04175-.78436,2.02584,2.02584,0,0,0-.45776-.65369A8.31938,8.31938,0,0,0,9.5731,2.76277l.00464-.00891a3.7982,3.7982,0,0,1,1.36108.90485,1.45385,1.45385,0,0,1,.45093,1.49823Z"/><path class="cls-21" d="M4.04575,5.71767a.80108.80108,0,0,1-.22143-.63049,1.174,1.174,0,0,1,.26343-.62549l-.00269.00448a4.35714,4.35714,0,0,1,.91968-1.13525,3.3982,3.3982,0,0,1,1.28882-.67953l.00341.0094a6.19332,6.19332,0,0,0-1.23339.74191,3.05828,3.05828,0,0,0-.92676,1.08682l-.00073.00186-.002.003a1.07276,1.07276,0,0,0-.0813,1.21634Z"/><path class="cls-21" d="M4.98862,4.2903a3.66921,3.66921,0,0,1,.75489-.5975A1.4598,1.4598,0,0,1,6.66734,3.453l-.00049.005a1.99139,1.99139,0,0,0-.90357.26962,3.9023,3.9023,0,0,0-.77124.56619Z"/><path class="cls-21" d="M4.43394,5.43813a2.08545,2.08545,0,0,1,.85571-1.15375A2.90819,2.90819,0,0,1,5.94859,3.963a4.00967,4.00967,0,0,1,.71826-.13821l.00049.005a3.73062,3.73062,0,0,0-1.35572.48786,2.097,2.097,0,0,0-.8728,1.12152Z"/><path class="cls-21" d="M4.60142,5.51653A3.28239,3.28239,0,0,1,6.70371,3.95406l.00122.00485a3.77832,3.77832,0,0,0-2.09912,1.56Z"/><path class="cls-21" d="M8.88071,3.82509a3.54852,3.54852,0,0,1,.52491.36045.99384.99384,0,0,1,.37231.51327l-.031.00125A2.08353,2.08353,0,0,0,9.734,4.37581c-.01416-.098-.03614-.23489-.12037-.25836l.0127-.03833a3.49,3.49,0,0,1,.66016.51743,1.11439,1.11439,0,0,1,.3645.73663L10.64585,5.333a1.09108,1.09108,0,0,0-.39282-.70374,3.79184,3.79184,0,0,0-.648-.51462L9.443,4.01223l.175.064c.13843.05069.13208.1951.15234.29511a2.10307,2.10307,0,0,1,.00757.33038l-.00635.13651L9.74693,4.703A.9878.9878,0,0,0,9.39317,4.2a3.54044,3.54044,0,0,0-.5149-.37054Z"/><path class="cls-21" d="M9.57627,3.44976a2.71265,2.71265,0,0,1,.90723.53537,1.08812,1.08812,0,0,1,.39673.94848l-.00489-.00042a1.27234,1.27234,0,0,0-.41943-.91919,2.80341,2.80341,0,0,0-.88135-.55954Z"/><path class="cls-21" d="M7.328,3.77571a1.80926,1.80926,0,0,1-1.0166-1.442,2.09486,2.09486,0,0,1,.32519-.85748.67576.67576,0,0,1,.32837-.33851,2.452,2.452,0,0,1,.45484-.076l.00219.0097c-.1416.05383-.29956.07495-.42822.13269a.79022.79022,0,0,0-.2727.32065,2.836,2.836,0,0,0-.355.81167,1.09315,1.09315,0,0,0,.32373.804,5.205,5.205,0,0,0,.64355.62686Z"/><path class="cls-21" d="M7.21128,1.51955c.116-.20828.18066-.41821.28247-.6424A.8743.8743,0,0,1,8.15757.61821a1.60285,1.60285,0,0,1,1.17285.72626L9.3292,1.343a1.48688,1.48688,0,0,1,.34644.83343,1.51428,1.51428,0,0,1-.21631.88443l.00219-.004a1.69359,1.69359,0,0,1-1.85717.65454l.00122-.00988a2.58716,2.58716,0,0,0,1.0039-.09745,1.37906,1.37906,0,0,0,.76612-.58636l.00219-.00437a1.44194,1.44194,0,0,0-.07446-1.64666l-.00146-.00177A1.49384,1.49384,0,0,0,8.1561.70516.86314.86314,0,0,0,7.547.91069a2.55452,2.55452,0,0,0-.14209.314l-.18505.29987Z"/><path class="cls-21" d="M7.28013,3.56453c.15845-.04834.17285-.20038.20239-.34121l.00513-.00046a.24345.24345,0,0,1-.01953.22421.25763.25763,0,0,1-.187.12241Z"/><path class="cls-21" d="M7.38438,3.51491a.51525.51525,0,0,0,.447-.24762,1.51129,1.51129,0,0,0,.16235-.50909l.00513.00027a.81077.81077,0,0,1-.13428.53113.5249.5249,0,0,1-.481.23026Z"/><path class="cls-21" d="M7.60459,3.47866a1.50612,1.50612,0,0,0,1.36524-1.06l.00488.00076a1.02567,1.02567,0,0,1-.48682.77329,2.01078,2.01078,0,0,1-.88281.29092Z"/><path class="cls-21" d="M7.79868,3.72365a3.15482,3.15482,0,0,0,.738-.29327c.21313-.13355.45776-.31742.43311-.59723l.00488-.00092c.071.28943-.19092.51895-.41846.633a2.93921,2.93921,0,0,1-.75635.2633Z"/><path class="cls-21" d="M8.61192,3.4663a.65592.65592,0,0,0,.49975-.56641l.00488.00049a.53053.53053,0,0,1-.13378.39187.5415.5415,0,0,1-.37037.179Z"/><path class="cls-22" d="M7.16166,9.43815s.03671.52858-.30327.65407c-.20992.07748.11018.16733.18207.18713.26568.07315.89276.27181,1.06743-.06165-.0233.04447-.38384-.20808-.40881-.26127a1.11625,1.11625,0,0,1,.00447-.47888"/><path class="cls-23" d="M6.85752,10.09716c-.14209.004-.40918-.0264-.39453.12289-.04614.17978.07007.28818.20776.37125a.84.84,0,0,0,.4795.07623.43148.43148,0,0,0,.37475-.27066l.05029.01666c-.0166.09226.1023.19156.19068.22724a1.07959,1.07959,0,0,0,.34375.02566c.2207-.016.50732-.08227.55615-.28082l.01611.03662a.77889.77889,0,0,0-.57251-.19977l-.00317-.00952a.73823.73823,0,0,1,.62622.14291l.01807.01114-.00171.02579a.35742.35742,0,0,1-.262.29266,1.20662,1.20662,0,0,1-.37159.07419.94336.94336,0,0,1-.37915-.04129c-.11328-.06644-.23633-.16073-.21118-.32144l.05029.01666a.5388.5388,0,0,1-.41821.293.88174.88174,0,0,1-.51953-.046.3704.3704,0,0,1-.24268-.44437c-.019-.11819.135-.16818.20679-.16076a1.00773,1.00773,0,0,1,.25757.03192Z"/><path class="cls-24" d="M4.86314,15.33562,4.16953,14.504l-.00219-.00245.00024-.00311a7.36224,7.36224,0,0,1,.16724-1.27228l.00048-.00189c.15137-.4776.31983-.95038.51831-1.41116a5.56155,5.56155,0,0,1,.7334-1.31244l.00318-.00263a1.50585,1.50585,0,0,1,.77588-.19174v.005a1.49019,1.49019,0,0,0-.75977.21164l.00293-.00238a6.99262,6.99262,0,0,0-.7146,1.31033c-.2.458-.37183.92825-.52832,1.40341l.00049-.00152a7.58851,7.58851,0,0,0-.18042,1.26492l-.00195-.00522.68237.83987Z"/><path class="cls-24" d="M5.83945,12.421a1.51125,1.51125,0,0,1-.36352.9006l-.00147.00125.00245-.00274a2.12692,2.12692,0,0,0-.27295.55041.46478.46478,0,0,0,.12964.54587c.27124.31293.54052.62744.79809.95193l.01685.021-.02686-.00015c-.14648-.00083-.22.16888-.26929.29458L5.84776,15.682c.04589-.12659.10278-.30634.2749-.31809l-.01.02066c-.27905-.30649-.54663-.623-.812-.94107-.05811-.07861-.15723-.15146-.16529-.26849a.75406.75406,0,0,1,.03565-.31436,2.142,2.142,0,0,1,.2854-.5546l.00268-.003.00122-.00095a1.50277,1.50277,0,0,0,.374-.88177Z"/><path class="cls-24" d="M9.306,15.87059c.03857-.69406.0664-1.38876.07959-2.08346.00537-.34729.00976-.6948-.00025-1.04166a4.89516,4.89516,0,0,0-.0791-1.03512l.00464-.00153a8.126,8.126,0,0,1,.1145,2.07925c-.022.69526-.06152,1.38959-.1145,2.08286Z"/><path class="cls-24" d="M8.567,10.29891a2.80479,2.80479,0,0,1,.64234.227,1.00979,1.00979,0,0,1,.49438.456l.00025.00122c.17358.76856.31787,1.54389.42529,2.32492a7.56392,7.56392,0,0,1,.04541,2.35654l-.00488-.001a9.47595,9.47595,0,0,0-.08228-2.35c-.1001-.78046-.23584-1.5568-.39673-2.3274L9.691,10.987a.99948.99948,0,0,0-.48584-.45276,2.80175,2.80175,0,0,0-.63916-.23044Z"/><path class="cls-18" d="M15.97913,7.98957A7.99622,7.99622,0,0,1,5.84838,15.689q-.125-.03468-.24829-.07328-.378-.11832-.73916-.27237a7.99046,7.99046,0,1,1,11.1182-7.35375Z"/><path class="cls-24" d="M5.48521,13.31594a3.63612,3.63612,0,0,0-.01856,1.29,3.64972,3.64972,0,0,1-.01855-1.29583Z"/><path class="cls-24" d="M7.1229,10.71679,7.058,13.32051l-.02344,1.30207c-.00024.43371-.02075.86889.01319,1.30145-.03711-.43246-.01953-.86777-.02246-1.30154l.01391-1.30231.04614-2.60434Z"/><path class="cls-24" d="M5.95762,15.18322a1.789,1.789,0,0,0-.356.43383l-.00342-.00149a.79418.79418,0,0,1,.35718-.43546Z"/><path class="cls-24" d="M6.14072,15.37383a.79885.79885,0,0,1-.01855.30478.78468.78468,0,0,0-.01856-.29938Z"/><line class="cls-18" x1="5.95648" y1="15.46887" x2="6.18731" y2="15.77493"/><path class="cls-14" d="M5.407,7.36014a.44213.44213,0,0,0,.11579-.15543.74851.74851,0,0,1,.5946-.30982.59646.59646,0,0,1,.5414.218c.02253.0372.05119.071.0734.10894.02845.04854.05407.09873.07793.14967.02056.04387.09819.16306.05764.20158a.824.824,0,0,1-.44537.23252,1.13593,1.13593,0,0,1-.37623.01427A.71979.71979,0,0,1,5.683,7.68722a1.46018,1.46018,0,0,1-.24473-.2791Z"/><path class="cls-15" d="M5.484,7.4778a.21638.21638,0,0,1,.06933-.22571.49083.49083,0,0,1,.17676-.15921,1.328,1.328,0,0,1,.4585-.11.71189.71189,0,0,1,.69506.5574l-.009.00455a1.09367,1.09367,0,0,0-.68774-.5073.568.568,0,0,0-.41773.12027c-.09887.10227-.25732.1673-.27514.319Z"/><ellipse class="cls-16" cx="6.16464" cy="7.42997" rx="0.39507" ry="0.36308"/><ellipse class="cls-17" cx="6.15401" cy="7.42932" rx="0.29627" ry="0.27944"/><path class="cls-18" d="M6.95916,6.92305a1.77072,1.77072,0,0,0-1.70242.14384c.05674-.034.10789-.08014.16435-.11555a2.09794,2.09794,0,0,1,.4353-.209,1.81386,1.81386,0,0,1,.5861-.091.60591.60591,0,0,1,.46881.12923A.20731.20731,0,0,1,6.95916,6.92305Z"/></g></g></svg>