<?xml version="1.0" encoding="UTF-8"?>
<svg width="191px" height="57px" viewBox="0 0 191 57" version="1.1" xmlns="http://www.w3.org/2000/svg" xmlns:xlink="http://www.w3.org/1999/xlink">
    <title>Rockete_smoke</title>
    <defs>
        <linearGradient x1="50%" y1="0%" x2="50%" y2="64.7081163%" id="linearGradient-1">
            <stop stop-color="#EFE6E1" stop-opacity="0.3" offset="0%"></stop>
            <stop stop-color="#EFE6E1" offset="100%"></stop>
        </linearGradient>
        <path d="M172.067767,17 C172.196742,20.7886525 172.491339,23.8401665 172.951556,26.1545421 C173.933961,26.2083225 174.879019,26.4928744 175.726346,27.0280315 C177.324444,28.0374382 178.282234,29.7534891 178.550617,31.7333788 C180.477876,30.7135799 182.566209,30.5470216 184.299573,31.4785738 C186.554085,32.690283 187.6207,35.4440485 187.307922,38.4871692 C187.547663,38.4274436 187.799886,38.3962264 188.06,38.3962264 C189.683717,38.3962264 191,39.6126603 191,41.1132075 C191,42.1876735 190.325107,43.1164669 189.345706,43.5572978 C189.864616,44.2412846 190.16,45.0292466 190.16,45.8679245 C190.16,48.4938822 187.264178,50.6226415 183.692,50.6226415 C181.22969,50.6226415 179.088741,49.6111877 177.99606,48.1226384 C177.891583,48.116876 177.787336,48.1073884 177.683631,48.0949102 C176.009938,49.3354059 173.601149,50.1132075 170.924,50.1132075 C170.23864,50.1132075 169.570868,50.0622321 168.928506,49.9655764 C167.636808,51.4502114 166.066049,52.3207547 164.372,52.3207547 C163.872298,52.3207547 163.383323,52.2450085 162.909067,52.1000985 C161.524216,52.6711153 159.896845,53 158.156,53 C153.099281,53 149,50.2250102 149,46.8018868 C149,45.1766586 149.924041,43.6975297 151.435875,42.5921217 C151.116917,41.9212055 150.831822,41.2030876 150.58889,40.4474015 C148.969031,35.4079411 150.670803,32.6836925 153.362195,31.7997469 C154.799584,31.3276919 156.228542,31.4760101 157.494874,32.4843522 C158.881292,28.6037124 161.442272,26 164.372,26 C165.746163,26 167.039201,26.5728155 168.168111,27.581559 C168.250034,27.5267547 168.332454,27.4734285 168.415327,27.4215953 C168.968967,24.9439771 169.433177,21.4697987 169.807907,17 L172.067767,17 Z" id="path-2"></path>
        <filter x="-7.1%" y="-8.3%" width="114.3%" height="116.7%" filterUnits="objectBoundingBox" id="filter-3">
            <feGaussianBlur stdDeviation="1.5" in="SourceAlpha" result="shadowBlurInner1"></feGaussianBlur>
            <feOffset dx="0" dy="-3" in="shadowBlurInner1" result="shadowOffsetInner1"></feOffset>
            <feComposite in="shadowOffsetInner1" in2="SourceAlpha" operator="arithmetic" k2="-1" k3="1" result="shadowInnerInner1"></feComposite>
            <feColorMatrix values="0 0 0 0 0.662745098   0 0 0 0 0.537254902   0 0 0 0 0.482352941  0 0 0 0.6 0" type="matrix" in="shadowInnerInner1" result="shadowMatrixInner1"></feColorMatrix>
            <feGaussianBlur stdDeviation="1.5" in="SourceAlpha" result="shadowBlurInner2"></feGaussianBlur>
            <feOffset dx="0" dy="1" in="shadowBlurInner2" result="shadowOffsetInner2"></feOffset>
            <feComposite in="shadowOffsetInner2" in2="SourceAlpha" operator="arithmetic" k2="-1" k3="1" result="shadowInnerInner2"></feComposite>
            <feColorMatrix values="0 0 0 0 1   0 0 0 0 1   0 0 0 0 1  0 0 0 0.6 0" type="matrix" in="shadowInnerInner2" result="shadowMatrixInner2"></feColorMatrix>
            <feMerge>
                <feMergeNode in="shadowMatrixInner1"></feMergeNode>
                <feMergeNode in="shadowMatrixInner2"></feMergeNode>
            </feMerge>
        </filter>
        <linearGradient x1="50%" y1="0%" x2="50%" y2="64.7081163%" id="linearGradient-4">
            <stop stop-color="#EFE6E1" stop-opacity="0.3" offset="0%"></stop>
            <stop stop-color="#EFE6E1" offset="100%"></stop>
        </linearGradient>
        <path d="M22.4342958,12 C22.5792819,18.3884495 22.9634598,23.1800231 23.5868294,26.3747209 C24.1683614,26.4761782 24.725756,26.6832197 25.2389763,27.0014733 C25.424937,27.116794 25.6002159,27.2436888 25.7646958,27.3811179 L25.9156734,27.2683097 C27.7136279,25.9687724 29.8232916,25.5952908 31.5159273,26.4884302 C32.6974402,27.1118904 33.4770094,28.2476464 33.8127992,29.6270007 C34.5617448,29.3292077 35.4238691,29.1595088 36.3409091,29.1595088 C39.240404,29.1595088 41.5909091,30.8559826 41.5909091,32.948689 C41.5909091,33.5446512 41.4002832,34.1084789 41.0606386,34.6101421 C43.4047545,35.4406207 45,37.0818813 45,38.970779 C45,41.6080628 41.8902577,43.7626074 37.9749449,43.9029732 C38.1106791,44.2738043 38.1818182,44.661647 38.1818182,45.0605329 C38.1818182,47.7885253 34.8544798,50 30.75,50 C28.5939686,50 26.6523714,49.3897948 25.2948362,48.4150531 C23.9385376,49.3897948 21.9969405,50 19.8409091,50 C18.8028081,50 17.8144193,49.8585363 16.9170016,49.6030312 C15.0735584,50.1555836 12.6605101,49.7083769 10.2834376,48.4060138 C9.40528347,48.6480679 8.44209222,48.7820492 7.43181818,48.7820492 C3.32733834,48.7820492 1.31450406e-13,46.5705745 1.31450406e-13,43.8425821 C1.31450406e-13,42.2321964 1.15949942,40.8018048 2.95389128,39.9000812 C2.14304465,37.4284704 2.35914767,35.1271832 3.77714621,33.7199321 C5.31588565,32.1929056 7.91541841,32.0703724 10.6447986,33.1305812 C11.0878692,31.0715961 12.5037414,29.5654924 14.1818182,29.5654924 C14.9761336,29.5654924 15.7116997,29.9029484 16.3132081,30.4768279 L16.4118145,30.30216 L16.552042,30.0720487 C17.2026019,29.0388746 18.0209726,28.1934221 18.9204328,27.5663455 C19.5475286,24.2968332 20.059681,19.1073968 20.456919,12 L22.4342958,12 Z" id="path-5"></path>
        <filter x="-6.7%" y="-7.9%" width="113.3%" height="115.8%" filterUnits="objectBoundingBox" id="filter-6">
            <feGaussianBlur stdDeviation="1.5" in="SourceAlpha" result="shadowBlurInner1"></feGaussianBlur>
            <feOffset dx="0" dy="-3" in="shadowBlurInner1" result="shadowOffsetInner1"></feOffset>
            <feComposite in="shadowOffsetInner1" in2="SourceAlpha" operator="arithmetic" k2="-1" k3="1" result="shadowInnerInner1"></feComposite>
            <feColorMatrix values="0 0 0 0 0.662745098   0 0 0 0 0.537254902   0 0 0 0 0.482352941  0 0 0 0.6 0" type="matrix" in="shadowInnerInner1" result="shadowMatrixInner1"></feColorMatrix>
            <feGaussianBlur stdDeviation="1.5" in="SourceAlpha" result="shadowBlurInner2"></feGaussianBlur>
            <feOffset dx="0" dy="1" in="shadowBlurInner2" result="shadowOffsetInner2"></feOffset>
            <feComposite in="shadowOffsetInner2" in2="SourceAlpha" operator="arithmetic" k2="-1" k3="1" result="shadowInnerInner2"></feComposite>
            <feColorMatrix values="0 0 0 0 1   0 0 0 0 1   0 0 0 0 1  0 0 0 0.6 0" type="matrix" in="shadowInnerInner2" result="shadowMatrixInner2"></feColorMatrix>
            <feMerge>
                <feMergeNode in="shadowMatrixInner1"></feMergeNode>
                <feMergeNode in="shadowMatrixInner2"></feMergeNode>
            </feMerge>
        </filter>
        <linearGradient x1="50%" y1="0%" x2="50%" y2="64.7081163%" id="linearGradient-7">
            <stop stop-color="#EFE6E1" stop-opacity="0.3" offset="0%"></stop>
            <stop stop-color="#EFE6E1" offset="100%"></stop>
        </linearGradient>
        <path d="M101.459677,-4.61852778e-14 C103.008371,12.2831323 105.92627,21.3649978 110.213374,27.2455966 C111.135877,26.7406926 112.176034,26.4574468 113.276515,26.4574468 C113.911678,26.4574468 114.526745,26.5518025 115.110697,26.7284297 C115.519071,26.6760731 115.937394,26.6491228 116.362903,26.6491228 C121.13304,26.6491228 125,30.0360494 125,34.2140351 C125,35.5180437 124.623299,36.7449912 123.96001,37.8159508 C126.395447,39.451544 128,42.2444503 128,45.4148936 C128,50.4559608 123.943428,54.5425532 118.939394,54.5425532 C117.52363,54.5425532 116.183707,54.2154367 114.990037,53.6321369 C113.330262,55.6871572 110.798381,57 107.962121,57 C105.52731,57 103.316812,56.0324996 101.688779,54.4583041 C100.061976,56.0324996 97.8514774,57 95.4166667,57 C93.5875265,57 91.884981,56.4539723 90.4608807,55.5148909 C89.3066181,56.4558419 87.9379426,57 86.470852,57 C84.4530247,57 82.6213699,55.9706116 81.2735875,54.2962898 C79.9257153,55.9706116 78.0940605,57 76.0762332,57 C73.6617554,57 71.513837,55.526135 70.1425086,53.2370679 C69.6448955,53.3735702 69.1587616,53.4467005 68.7254484,53.4467005 C66.6679401,53.4467005 65,51.6698431 65,49.4779785 C65,48.747357 65.2731319,47.9774985 65.7135117,47.2757412 L65.7401147,47.2332388 C65.2752753,46.5710868 65,45.7491342 65,44.8586892 C65,44.1264213 65.2743641,43.3547395 65.7164912,42.651709 C63.4282604,41.0546833 62,38.7893072 62,36.277193 C62,31.4345278 67.3075921,27.5087719 73.8548387,27.5087719 C75.6910466,27.5087719 77.4297495,27.8175522 78.981212,28.3687401 L78.9730942,28.0406091 L78.9730942,28.0406091 C78.9730942,24.7044728 80.9948397,22 83.4887892,22 C84.1541035,22 84.7858124,22.1924691 85.3544975,22.5380543 C88.3996255,16.220685 90.493481,8.70753025 91.6370968,-4.61852778e-14 L101.459677,-4.61852778e-14 Z" id="path-8"></path>
        <filter x="-4.5%" y="-5.3%" width="109.1%" height="110.5%" filterUnits="objectBoundingBox" id="filter-9">
            <feGaussianBlur stdDeviation="1.5" in="SourceAlpha" result="shadowBlurInner1"></feGaussianBlur>
            <feOffset dx="0" dy="-3" in="shadowBlurInner1" result="shadowOffsetInner1"></feOffset>
            <feComposite in="shadowOffsetInner1" in2="SourceAlpha" operator="arithmetic" k2="-1" k3="1" result="shadowInnerInner1"></feComposite>
            <feColorMatrix values="0 0 0 0 0.662745098   0 0 0 0 0.537254902   0 0 0 0 0.482352941  0 0 0 0.6 0" type="matrix" in="shadowInnerInner1" result="shadowMatrixInner1"></feColorMatrix>
            <feGaussianBlur stdDeviation="1.5" in="SourceAlpha" result="shadowBlurInner2"></feGaussianBlur>
            <feOffset dx="0" dy="1" in="shadowBlurInner2" result="shadowOffsetInner2"></feOffset>
            <feComposite in="shadowOffsetInner2" in2="SourceAlpha" operator="arithmetic" k2="-1" k3="1" result="shadowInnerInner2"></feComposite>
            <feColorMatrix values="0 0 0 0 1   0 0 0 0 1   0 0 0 0 1  0 0 0 0.6 0" type="matrix" in="shadowInnerInner2" result="shadowMatrixInner2"></feColorMatrix>
            <feMerge>
                <feMergeNode in="shadowMatrixInner1"></feMergeNode>
                <feMergeNode in="shadowMatrixInner2"></feMergeNode>
            </feMerge>
        </filter>
    </defs>
    <g id="Main" stroke="none" stroke-width="1" fill="none" fill-rule="evenodd">
        <g id="Langing_page_Desktop" transform="translate(-624.000000, -830.000000)">
            <g id="Smoke" transform="translate(546.000000, 830.000000)">
                <g id="Rockete_smoke" transform="translate(78.000000, -0.000000)">
                    <g id="Small_smoke-2">
                        <use fill="url(#linearGradient-1)" fill-rule="evenodd" xlink:href="#path-2"></use>
                        <use fill="black" fill-opacity="1" filter="url(#filter-3)" xlink:href="#path-2"></use>
                    </g>
                    <g id="Small_smoke_1">
                        <use fill="url(#linearGradient-4)" fill-rule="evenodd" xlink:href="#path-5"></use>
                        <use fill="black" fill-opacity="1" filter="url(#filter-6)" xlink:href="#path-5"></use>
                    </g>
                    <g id="Big_smoke">
                        <use fill="url(#linearGradient-7)" fill-rule="evenodd" xlink:href="#path-8"></use>
                        <use fill="black" fill-opacity="1" filter="url(#filter-9)" xlink:href="#path-8"></use>
                    </g>
                </g>
            </g>
        </g>
    </g>
</svg>