<?xml version="1.0" encoding="UTF-8"?>
<svg width="165px" height="74px" viewBox="0 0 165 74" version="1.1" xmlns="http://www.w3.org/2000/svg" xmlns:xlink="http://www.w3.org/1999/xlink">
    <title>Group 3</title>
    <g id="Ideas" stroke="none" stroke-width="1" fill="none" fill-rule="evenodd">
        <g id="Rocket" transform="translate(-702.000000, -99.000000)">
            <g id="Group-3" transform="translate(702.000000, 99.000000)">
                <g id="Group-2" transform="translate(70.500000, 0.000000)">
                    <path d="M11.9323308,47 C12.0225564,47 13.6917293,46.954191 16.9398496,46.8625731 C17.7518797,45.0302144 18.232794,43.7475634 18.3825924,43.0146199 C19.1925017,39.0518446 21,36.3562586 21,28.997076 C21,18.5526316 17.9774436,8.88693957 11.9323308,0 C5.97744361,8.79532164 3,18.4610136 3,28.997076 C3,36.4817246 4.45346772,39.4073379 5.51773997,43.0146199 C5.7339835,43.7475634 6.2481203,45.0302144 7.06015038,46.8625731 C10.2180451,46.954191 11.8421053,47 11.9323308,47 Z" id="Oval" fill="#E36F61"></path>
                    <path d="M11.8654861,0 C11.9106875,0.0669518311 11.9557187,0.133947862 12.0005796,0.200988093 L11.9992827,46.9972082 C11.9228485,46.9990694 11.8782496,47 11.8654861,47 C11.7759357,47 10.1640291,46.954191 7.02976639,46.8625731 C6.22381311,45.0302144 5.71352383,43.7475634 5.49889855,43.0146199 C4.44259075,39.4073379 3,36.4817246 3,28.997076 C3,18.4610136 5.95516202,8.79532164 11.8654861,0 Z" id="Combined-Shape" fill="#AE2732"></path>
                    <rect id="Rectangle" fill="#63302E" x="7" y="47" width="9" height="2"></rect>
                    <rect id="Rectangle" fill="#4C0D08" x="7" y="47" width="5" height="2"></rect>
                    <path d="M0,32.8098592 L3.26086957,30 C3.88974579,33.4656497 4.36800666,35.9187013 4.69565217,37.3591549 C5.02329768,38.7996085 5.45808029,40.3606414 6,42.0422535 C4.58302641,43.40617 3.53954814,44.4765926 2.86956522,45.2535211 C2.19958229,46.0304497 1.24306055,47.279276 0,49 L0,32.8098592 Z" id="Rectangle" fill="#4C0D08"></path>
                    <path d="M18,32.8098592 L21.2608696,30 C21.8897458,33.4656497 22.3680067,35.9187013 22.6956522,37.3591549 C23.0232977,38.7996085 23.4580803,40.3606414 24,42.0422535 C22.5830264,43.40617 21.5395481,44.4765926 20.8695652,45.2535211 C20.1995823,46.0304497 19.2430606,47.279276 18,49 L18,32.8098592 Z" id="Rectangle" fill="#4C0D08" transform="translate(21.000000, 39.500000) scale(-1, 1) translate(-21.000000, -39.500000) "></path>
                    <circle id="Oval" stroke="#4C0D08" fill="#FDD396" cx="12" cy="21" r="5"></circle>
                    <path d="M11.9755819,26 C12.1610745,26 11.2458299,25.7304765 10.7151011,25.460953 C10.1843724,25.1914295 8.19413965,23.1700032 8.19413965,21.0138152 C8.19413965,18.8576271 9.12362828,17.9037116 9.91900803,16.8362008 C10.7143878,15.7686901 12.0863755,16.0276303 11.9092408,16.0276303 C9.16130279,16.0276303 7,18.155427 7,20.9464343 C7,23.7374416 9.22764388,26 11.9755819,26 Z" id="Oval" fill="#E36F61" opacity="0.43"></path>
                    <path d="M16.9755819,26 C17.1610745,26 16.2458299,25.7304765 15.7151011,25.460953 C15.1843724,25.1914295 13.1941396,23.1700032 13.1941396,21.0138152 C13.1941396,18.8576271 14.1236283,17.9037116 14.919008,16.8362008 C15.7143878,15.7686901 17.0863755,16.0276303 16.9092408,16.0276303 C14.1613028,16.0276303 12,18.155427 12,20.9464343 C12,23.7374416 14.2276439,26 16.9755819,26 Z" id="Oval" fill="#E36F61" opacity="0.43" transform="translate(14.500000, 21.000000) scale(-1, 1) translate(-14.500000, -21.000000) "></path>
                    <path d="M11.3936977,64 C11.9459175,64 13.3144038,56.0202086 13.740632,54.6944444 C13.8312881,54.4124626 13.6600943,58.1663717 13.7260578,57.9513889 C14.2100362,56.3740452 14.5370225,54.2514832 14.7070167,53.375 C15.0644104,51.5322933 15.0948309,50.0938294 14.7982781,49.0596084 L11.3936977,49 L8.17538858,49.0236125 C7.92797531,50.2115745 7.94232363,51.662037 8.21843356,53.375 C8.47078017,54.9405373 8.81650406,56.5132679 9.03569499,57.9508535 C9.16574375,58.8037914 8.89686486,53.9663824 9.04676332,54.6944444 C9.49496882,56.8713941 10.8414778,64 11.3936977,64 Z" id="Oval" fill="#FCB44B"></path>
                    <path d="M11.4240698,55 C11.8185125,55 12.7960027,51.8080835 13.1004514,51.2777778 C13.1652058,51.164985 13.0429245,52.6665487 13.0900413,52.5805556 C13.4357401,51.9496181 13.6693018,51.1005933 13.7907262,50.75 C14.0460074,50.0129173 14.0677363,49.4375318 13.8559129,49.0238434 L11.4240698,49 L9.12527756,49.009445 C8.94855379,49.4846298 8.9588026,50.0648148 9.15602397,50.75 C9.33627155,51.3762149 9.58321718,52.0053071 9.73978213,52.5803414 C9.83267411,52.9215165 9.64061776,50.986553 9.74768809,51.2777778 C10.0678349,52.1485576 11.029627,55 11.4240698,55 Z" id="Oval" fill="#FDD396"></path>
                </g>
                <g id="Group-2" transform="translate(149.000000, 31.000000)">
                    <path d="M7.95488722,32 C8.01503759,32 9.12781955,31.9688109 11.2932331,31.9064327 C11.8345865,30.6588694 12.155196,29.785575 12.2550616,29.2865497 C12.7950011,26.5884899 14,24.7531973 14,19.7426901 C14,12.6315789 11.9849624,6.05068226 7.95488722,0 C3.98496241,5.98830409 2,12.5692008 2,19.7426901 C2,24.838621 2.96897848,26.8305279 3.67849331,29.2865497 C3.82265567,29.785575 4.16541353,30.6588694 4.70676692,31.9064327 C6.81203008,31.9688109 7.89473684,32 7.95488722,32 Z" id="Oval" fill="#E36F61"></path>
                    <path d="M7.90994343,0 C7.94028719,0.0459040216 7.97051584,0.0918385603 8.00062939,0.137803616 L7.99853705,31.9981141 C7.94794972,31.9993714 7.91841852,32 7.90994343,32 C7.85024703,32 6.77571186,31.9688109 4.68633792,31.9064327 C4.14907034,30.6588694 3.80889939,29.785575 3.66582509,29.2865497 C2.96166523,26.8305279 2,24.838621 2,19.7426901 C2,12.5692008 3.96998114,5.98830409 7.90994343,0 Z" id="Combined-Shape" fill="#AE2732"></path>
                    <rect id="Rectangle" fill="#63302E" x="5" y="32" width="6" height="1"></rect>
                    <rect id="Rectangle" fill="#4C0D08" x="5" y="32" width="3" height="1"></rect>
                    <path d="M0,21.9225352 L2.17391304,20 C2.59316386,22.371234 2.91200444,24.0496378 3.13043478,25.0352113 C3.34886512,26.0207848 3.6387202,27.0888599 4,28.2394366 C3.05535094,29.1726427 2.35969876,29.905037 1.91304348,30.4366197 C1.46638819,30.9682024 0.828707034,31.8226625 0,33 L0,21.9225352 Z" id="Rectangle" fill="#4C0D08"></path>
                    <path d="M12,21.9225352 L14.173913,20 C14.5931639,22.371234 14.9120044,24.0496378 15.1304348,25.0352113 C15.3488651,26.0207848 15.6387202,27.0888599 16,28.2394366 C15.0553509,29.1726427 14.3596988,29.905037 13.9130435,30.4366197 C13.4663882,30.9682024 12.828707,31.8226625 12,33 L12,21.9225352 Z" id="Rectangle" fill="#4C0D08" transform="translate(14.000000, 26.500000) scale(-1, 1) translate(-14.000000, -26.500000) "></path>
                    <circle id="Oval" stroke="#4C0D08" stroke-width="0.5" fill="#FDD396" cx="7.5" cy="14.5" r="3.5"></circle>
                    <path d="M7.98534912,18 C8.09664471,18 7.54749791,17.8113335 7.22906068,17.6226671 C6.91062344,17.4340006 5.71648379,16.0190022 5.71648379,14.5096706 C5.71648379,13.000339 6.27417697,12.3325981 6.75140482,11.5853406 C7.22863266,10.838083 8.05182532,11.0193412 7.94554446,11.0193412 C6.29678167,11.0193412 5,12.5087989 5,14.462504 C5,16.4162091 6.33658633,18 7.98534912,18 Z" id="Oval" fill="#E36F61" opacity="0.43"></path>
                    <path d="M10.9853491,18 C11.0966447,18 10.5474979,17.8113335 10.2290607,17.6226671 C9.91062344,17.4340006 8.71648379,16.0190022 8.71648379,14.5096706 C8.71648379,13.000339 9.27417697,12.3325981 9.75140482,11.5853406 C10.2286327,10.838083 11.0518253,11.0193412 10.9455445,11.0193412 C9.29678167,11.0193412 8,12.5087989 8,14.462504 C8,16.4162091 9.33658633,18 10.9853491,18 Z" id="Oval" fill="#E36F61" opacity="0.43" transform="translate(9.500000, 14.500000) scale(-1, 1) translate(-9.500000, -14.500000) "></path>
                    <path d="M7.42406976,43 C7.81851251,43 8.79600273,37.6801391 9.10045143,36.7962963 C9.16520579,36.6083084 9.04292451,39.1109145 9.09004126,38.9675926 C9.43574011,37.9160301 9.66930177,36.5009888 9.79072624,35.9166667 C10.0460074,34.6881955 10.0677363,33.7292196 9.85591294,33.0397389 L7.42406976,33 L5.12527756,33.0157417 C4.94855379,33.8077164 4.9588026,34.7746914 5.15602397,35.9166667 C5.33627155,36.9603582 5.58321718,38.0088452 5.73978213,38.9672357 C5.83267411,39.5358609 5.64061776,36.3109216 5.74768809,36.7962963 C6.06783487,38.247596 7.02962701,43 7.42406976,43 Z" id="Oval" fill="#FCB44B"></path>
                    <path d="M7.45444186,37 C7.6911075,37 8.27760164,34.8720556 8.46027086,34.5185185 C8.49912347,34.4433234 8.42575471,35.4443658 8.45402475,35.387037 C8.66144407,34.9664121 8.80158106,34.4003955 8.87443574,34.1666667 C9.02760446,33.6752782 9.0406418,33.2916878 8.91354776,33.0158956 L7.45444186,33 L6.07516654,33.0062967 C5.96913228,33.3230865 5.97528156,33.7098765 6.09361438,34.1666667 C6.20176293,34.5841433 6.34993031,35.0035381 6.44386928,35.3868943 C6.49960446,35.6143444 6.38437066,34.3243686 6.44861285,34.5185185 C6.64070092,35.0990384 7.21777621,37 7.45444186,37 Z" id="Oval" fill="#FDD396"></path>
                </g>
                <g id="Group-2" transform="translate(0.000000, 31.000000)">
                    <path d="M7.95488722,32 C8.01503759,32 9.12781955,31.9688109 11.2932331,31.9064327 C11.8345865,30.6588694 12.155196,29.785575 12.2550616,29.2865497 C12.7950011,26.5884899 14,24.7531973 14,19.7426901 C14,12.6315789 11.9849624,6.05068226 7.95488722,0 C3.98496241,5.98830409 2,12.5692008 2,19.7426901 C2,24.838621 2.96897848,26.8305279 3.67849331,29.2865497 C3.82265567,29.785575 4.16541353,30.6588694 4.70676692,31.9064327 C6.81203008,31.9688109 7.89473684,32 7.95488722,32 Z" id="Oval" fill="#E36F61"></path>
                    <path d="M7.90994343,0 C7.94028719,0.0459040216 7.97051584,0.0918385603 8.00062939,0.137803616 L7.99853705,31.9981141 C7.94794972,31.9993714 7.91841852,32 7.90994343,32 C7.85024703,32 6.77571186,31.9688109 4.68633792,31.9064327 C4.14907034,30.6588694 3.80889939,29.785575 3.66582509,29.2865497 C2.96166523,26.8305279 2,24.838621 2,19.7426901 C2,12.5692008 3.96998114,5.98830409 7.90994343,0 Z" id="Combined-Shape" fill="#AE2732"></path>
                    <rect id="Rectangle" fill="#63302E" x="5" y="32" width="6" height="1"></rect>
                    <rect id="Rectangle" fill="#4C0D08" x="5" y="32" width="3" height="1"></rect>
                    <path d="M0,21.9225352 L2.17391304,20 C2.59316386,22.371234 2.91200444,24.0496378 3.13043478,25.0352113 C3.34886512,26.0207848 3.6387202,27.0888599 4,28.2394366 C3.05535094,29.1726427 2.35969876,29.905037 1.91304348,30.4366197 C1.46638819,30.9682024 0.828707034,31.8226625 0,33 L0,21.9225352 Z" id="Rectangle" fill="#4C0D08"></path>
                    <path d="M12,21.9225352 L14.173913,20 C14.5931639,22.371234 14.9120044,24.0496378 15.1304348,25.0352113 C15.3488651,26.0207848 15.6387202,27.0888599 16,28.2394366 C15.0553509,29.1726427 14.3596988,29.905037 13.9130435,30.4366197 C13.4663882,30.9682024 12.828707,31.8226625 12,33 L12,21.9225352 Z" id="Rectangle" fill="#4C0D08" transform="translate(14.000000, 26.500000) scale(-1, 1) translate(-14.000000, -26.500000) "></path>
                    <circle id="Oval" stroke="#4C0D08" stroke-width="0.5" fill="#FDD396" cx="7.5" cy="14.5" r="3.5"></circle>
                    <path d="M7.98534912,18 C8.09664471,18 7.54749791,17.8113335 7.22906068,17.6226671 C6.91062344,17.4340006 5.71648379,16.0190022 5.71648379,14.5096706 C5.71648379,13.000339 6.27417697,12.3325981 6.75140482,11.5853406 C7.22863266,10.838083 8.05182532,11.0193412 7.94554446,11.0193412 C6.29678167,11.0193412 5,12.5087989 5,14.462504 C5,16.4162091 6.33658633,18 7.98534912,18 Z" id="Oval" fill="#E36F61" opacity="0.43"></path>
                    <path d="M10.9853491,18 C11.0966447,18 10.5474979,17.8113335 10.2290607,17.6226671 C9.91062344,17.4340006 8.71648379,16.0190022 8.71648379,14.5096706 C8.71648379,13.000339 9.27417697,12.3325981 9.75140482,11.5853406 C10.2286327,10.838083 11.0518253,11.0193412 10.9455445,11.0193412 C9.29678167,11.0193412 8,12.5087989 8,14.462504 C8,16.4162091 9.33658633,18 10.9853491,18 Z" id="Oval" fill="#E36F61" opacity="0.43" transform="translate(9.500000, 14.500000) scale(-1, 1) translate(-9.500000, -14.500000) "></path>
                    <path d="M7.42406976,43 C7.81851251,43 8.79600273,37.6801391 9.10045143,36.7962963 C9.16520579,36.6083084 9.04292451,39.1109145 9.09004126,38.9675926 C9.43574011,37.9160301 9.66930177,36.5009888 9.79072624,35.9166667 C10.0460074,34.6881955 10.0677363,33.7292196 9.85591294,33.0397389 L7.42406976,33 L5.12527756,33.0157417 C4.94855379,33.8077164 4.9588026,34.7746914 5.15602397,35.9166667 C5.33627155,36.9603582 5.58321718,38.0088452 5.73978213,38.9672357 C5.83267411,39.5358609 5.64061776,36.3109216 5.74768809,36.7962963 C6.06783487,38.247596 7.02962701,43 7.42406976,43 Z" id="Oval" fill="#FCB44B"></path>
                    <path d="M7.45444186,37 C7.6911075,37 8.27760164,34.8720556 8.46027086,34.5185185 C8.49912347,34.4433234 8.42575471,35.4443658 8.45402475,35.387037 C8.66144407,34.9664121 8.80158106,34.4003955 8.87443574,34.1666667 C9.02760446,33.6752782 9.0406418,33.2916878 8.91354776,33.0158956 L7.45444186,33 L6.07516654,33.0062967 C5.96913228,33.3230865 5.97528156,33.7098765 6.09361438,34.1666667 C6.20176293,34.5841433 6.34993031,35.0035381 6.44386928,35.3868943 C6.49960446,35.6143444 6.38437066,34.3243686 6.44861285,34.5185185 C6.64070092,35.0990384 7.21777621,37 7.45444186,37 Z" id="Oval" fill="#FDD396"></path>
                </g>
            </g>
        </g>
    </g>
</svg>