<?xml version="1.0" encoding="UTF-8"?>
<svg width="30px" height="60px" viewBox="0 0 30 60" version="1.1" xmlns="http://www.w3.org/2000/svg" xmlns:xlink="http://www.w3.org/1999/xlink">
    <title>Phone</title>
    <g id="Main" stroke="none" stroke-width="1" fill="none" fill-rule="evenodd">
        <g id="Langing_page_Desktop" transform="translate(-891.000000, -2034.000000)" fill-rule="nonzero">
            <g id="Phone" transform="translate(891.000000, 2034.000000)">
                <rect id="Rectangle" fill="#E3C4B4" x="0" y="0" width="30" height="60" rx="1"></rect>
                <path d="M15,0 L27.6086957,0 C28.9293765,0 30,1.05911134 30,2.3655914 L30,57.6344086 C30,58.9408886 28.9293765,60 27.6086957,60 L15,60 L15,0 Z" id="Rectangle" fill="#A9897B" opacity="0.470726376"></path>
                <rect id="Rectangle" fill="#EFE6E1" x="2.5" y="6.66666667" width="24.1666667" height="45.8333333"></rect>
                <rect id="Rectangle" fill-opacity="0.6" fill="#4C0D08" x="2.5" y="6.66666667" width="1" height="45.8333333"></rect>
                <rect id="Rectangle" fill-opacity="0.6" fill="#4C0D08" x="2.5" y="6.66666667" width="24.1666667" height="1"></rect>
                <rect id="Rectangle" fill="#E3C4B4" x="11.6666667" y="3.33333333" width="5.83333333" height="1.66666667" rx="0.833333333"></rect>
                <path d="M17.0191684,3.33333333 C17.2105213,3.33333333 17.3823303,3.44209582 17.5,3.61465424 C17.4826448,3.61255016 17.4650905,3.61161727 17.4473685,3.61161727 L17.4473685,3.61161727 L12.737167,3.61161727 C12.3824344,3.61161727 12.0948668,3.98539318 12.0948668,4.44646909 C12.0948668,4.65882748 12.1558674,4.85266727 12.2563354,5 C11.926219,4.96547237 11.6666667,4.60622631 11.6666667,4.16818515 C11.6666667,3.70710924 11.9542343,3.33333333 12.3089669,3.33333333 L17.0191684,3.33333333 Z" id="Combined-Shape" fill-opacity="0.6" fill="#4C0D08"></path>
                <circle id="Oval" fill="#E3C4B4" cx="15" cy="2.5" r="1"></circle>
                <path d="M15,1.66666667 C15.4602373,1.66666667 15.8333333,2.03976272 15.8333333,2.5 C15.8333333,2.52451306 15.8322749,2.54877889 15.8302013,2.57275433 C15.7967804,2.22011225 15.5000275,1.94444444 15.1388889,1.94444444 C14.7553578,1.94444444 14.4444444,2.25535781 14.4444444,2.63888889 C14.4444444,3.00002747 14.7201123,3.29678039 15.0725014,3.33020122 L15.0489647,3.33191869 L15.0489647,3.33191869 L15,3.33333333 C14.5397627,3.33333333 14.1666667,2.96023728 14.1666667,2.5 C14.1666667,2.03976272 14.5397627,1.66666667 15,1.66666667 Z" id="Combined-Shape" fill-opacity="0.6" fill="#4C0D08"></path>
                <circle id="Oval" fill="#A9897B" cx="14.5833333" cy="56.25" r="2.91666667"></circle>
                <path d="M14.5833333,53.3333333 C16.1941639,53.3333333 17.5,54.6391696 17.5,56.25 C17.5,56.290149 17.4991888,56.3301085 17.4975819,56.3698631 C17.4381214,54.9404675 16.2605793,53.8 14.8166667,53.8 C13.3347026,53.8 12.1333333,55.0013692 12.1333333,56.4833333 C12.1333333,57.927246 13.273801,59.1047881 14.7030828,59.164306 L14.6552529,59.1657973 L14.6552529,59.1657973 L14.5833333,59.1666667 C12.9725028,59.1666667 11.6666667,57.8608304 11.6666667,56.25 C11.6666667,54.6391696 12.9725028,53.3333333 14.5833333,53.3333333 Z" id="Combined-Shape" fill-opacity="0.6" fill="#4C0D08"></path>
            </g>
        </g>
    </g>
</svg>