<?xml version="1.0" encoding="UTF-8"?>
<svg width="413px" height="413px" viewBox="0 0 413 413" version="1.1" xmlns="http://www.w3.org/2000/svg" xmlns:xlink="http://www.w3.org/1999/xlink">
    <title>Process_exploration</title>
    <defs>
        <radialGradient cx="48.6394709%" cy="39.9283854%" fx="48.6394709%" fy="39.9283854%" r="76.1670907%" gradientTransform="translate(0.486395,0.399284),scale(1.000000,0.880000),rotate(83.580467),translate(-0.486395,-0.399284)" id="radialGradient-1">
            <stop stop-color="#EFE6E1" offset="0%"></stop>
            <stop stop-color="#A9897B" offset="100%"></stop>
        </radialGradient>
    </defs>
    <g id="Front_page" stroke="none" stroke-width="1" fill="none" fill-rule="evenodd">
        <g id="Process_exploration" transform="translate(-106.000000, 0.000000)">
            <g transform="translate(106.000000, 0.000000)">
                <circle id="Oval" fill-opacity="0.5" fill="#FFFFFF" cx="206.5" cy="206.5" r="206.5"></circle>
                <g id="Work-Process" transform="translate(85.000000, 113.000000)">
                    <rect id="Rectangle" fill="#EFE6E1" x="39" y="33" width="167" height="119" rx="2"></rect>
                    <rect id="Rectangle" stroke="#4C0D08" x="76" y="59" width="29" height="32" rx="1"></rect>
                    <rect id="Rectangle" stroke="#4C0D08" x="76" y="109" width="29" height="11" rx="1"></rect>
                    <rect id="Rectangle" stroke="#4C0D08" x="141" y="109" width="29" height="22" rx="1"></rect>
                    <rect id="Rectangle" stroke="#4C0D08" x="141" y="59" width="29" height="32" rx="1"></rect>
                    <line x1="80" y1="64.5" x2="87" y2="64.5" id="Path-17" stroke="#4C0D08" stroke-width="2" stroke-linecap="round"></line>
                    <line x1="91" y1="64.5" x2="101" y2="64.5" id="Path-17" stroke="#4C0D08" stroke-width="2" stroke-linecap="round"></line>
                    <line x1="80" y1="75" x2="101" y2="75" id="Path-17" stroke="#4C0D08" stroke-width="2" stroke-linecap="round"></line>
                    <line x1="80" y1="85" x2="95" y2="85" id="Path-17" stroke="#4C0D08" stroke-width="3" stroke-linecap="round"></line>
                    <line x1="145" y1="64.5" x2="166" y2="64.5" id="Path-17" stroke="#4C0D08" stroke-width="2" stroke-linecap="round"></line>
                    <line x1="145" y1="75.5" x2="152" y2="75.5" id="Path-17" stroke="#4C0D08" stroke-width="2" stroke-linecap="round"></line>
                    <line x1="156" y1="75.5" x2="166" y2="75.5" id="Path-17" stroke="#4C0D08" stroke-width="2" stroke-linecap="round"></line>
                    <line x1="145" y1="85" x2="154" y2="85" id="Path-17" stroke="#4C0D08" stroke-width="3" stroke-linecap="round"></line>
                    <line x1="80" y1="114.5" x2="101" y2="114.5" id="Path-17" stroke="#4C0D08" stroke-width="2" stroke-linecap="round"></line>
                    <line x1="145" y1="115.5" x2="166" y2="115.5" id="Path-17" stroke="#4C0D08" stroke-width="2" stroke-linecap="round"></line>
                    <line x1="145" y1="125" x2="157" y2="125" id="Path-17" stroke="#4C0D08" stroke-width="3" stroke-linecap="round"></line>
                    <g id="Group-3" transform="translate(105.000000, 72.000000)" stroke="#4C0D08" stroke-linecap="round">
                        <line x1="0" y1="3" x2="33" y2="3" id="Path-18"></line>
                        <polyline id="Path-19" points="29 0 34 3 29 6"></polyline>
                    </g>
                    <g id="Group-3" transform="translate(155.000000, 99.000000) rotate(90.000000) translate(-155.000000, -99.000000) translate(147.000000, 96.000000)" stroke="#4C0D08" stroke-linecap="round">
                        <polyline id="Path-19" points="11 0 16 3 11 6"></polyline>
                        <line x1="0" y1="3" x2="15" y2="3" id="Path-18"></line>
                    </g>
                    <g id="Group-3" transform="translate(91.000000, 101.000000) scale(1, -1) rotate(90.000000) translate(-91.000000, -101.000000) translate(83.000000, 98.000000)" stroke="#4C0D08" stroke-linecap="round">
                        <polyline id="Path-19" points="11 0 16 3 11 6"></polyline>
                        <line x1="0" y1="3" x2="15" y2="3" id="Path-18"></line>
                    </g>
                    <path d="M34,174 L144,174 L144,187 L34,187 L21.9535578,181.407009 C21.4526306,181.174436 21.2350868,180.579816 21.4676601,180.078889 C21.5671457,179.864612 21.7392811,179.692477 21.9535578,179.592991 L34,174 L34,174 Z" id="Rectangle" fill="#E3C4B4"></path>
                    <path d="M24.59,182.617071 L21.9135879,181.429567 C21.4087629,181.20558 21.1810987,180.614761 21.4050857,180.109937 C21.5032809,179.888623 21.6784361,179.710451 21.8980409,179.608492 L24.5871004,178.36 L24.5871004,178.36 L24.59,182.617071 Z" id="Rectangle" fill="#0B0C0A"></path>
                    <rect id="Rectangle" fill="#4C0D08" x="144" y="174" width="4" height="13"></rect>
                    <path d="M148,174 L151,174 C154.313708,174 157,176.686292 157,180 L157,181 C157,184.313708 154.313708,187 151,187 L148,187 L148,187 L148,174 Z" id="Rectangle" fill="#A9897B"></path>
                    <path d="M206.651316,124 C222.475001,124 235.302632,136.827631 235.302632,152.651316 C235.302632,168.475001 222.475001,181.302632 206.651316,181.302632 C190.827631,181.302632 178,168.475001 178,152.651316 C178,136.827631 190.827631,124 206.651316,124 Z M238.723684,147.947368 C241.085428,147.947368 243,149.86194 243,152.223684 C243,154.585428 241.085428,156.5 238.723684,156.5 L235.302632,156.5 L235.302632,147.947368 L238.723684,147.947368 Z" id="Combined-Shape" stroke="#A9897B" stroke-width="8" fill="#4C0D08"></path>
                    <g id="Group-2">
                        <path d="M33,0 C51.2253967,0 66,14.7746033 66,33 C66,45.8237249 58.6854059,56.9390348 48.0008287,62.4013188 L48,75 L18,75 L18.0001704,62.4018295 C7.31505003,56.9397276 0,45.8241246 0,33 C0,14.7746033 14.7746033,0 33,0 Z" id="Combined-Shape" fill="url(#radialGradient-1)"></path>
                        <path d="M18.1513878,75 L47.881966,75 C47.9595886,75 48.0361451,75.0180725 48.1055728,75.0527864 L51.2746399,76.63732 C51.4228335,76.7114167 51.4829008,76.8916186 51.408804,77.0398122 C51.3696382,77.1181439 51.2981992,77.1754502 51.2132365,77.1966909 L48.0757464,77.9810634 C48.0312297,77.9921926 48,78.0321909 48,78.0780776 L48,78.95 C48,78.9814757 48.0148194,79.0111146 48.04,79.03 L51.6116718,81.7087539 C51.7442202,81.8081651 51.7710831,81.9962055 51.6716718,82.1287539 C51.6437277,82.1660127 51.6074926,82.1962537 51.5658359,82.217082 L48.0552786,83.9723607 C48.0214002,83.9892999 48,84.0239262 48,84.0618034 L48,84.9381966 C48,84.9760738 48.0214002,85.0107001 48.0552786,85.0276393 L51.4633437,86.7316718 C51.6115372,86.8057686 51.6716045,86.9859705 51.5975078,87.1341641 C51.5684787,87.1922223 51.5214019,87.239299 51.4633437,87.2683282 L48.0552786,88.9723607 C48.0214002,88.9892999 48,89.0239262 48,89.0618034 L48,89.9381966 C48,89.9760738 48.0214002,90.0107001 48.0552786,90.0276393 L51.5658359,91.782918 C51.7140295,91.8570147 51.7740968,92.0372166 51.7,92.1854102 C51.6791717,92.2270668 51.6489307,92.263302 51.6116718,92.2912461 L48.1333333,94.9 C48.0467852,94.9649111 47.9415184,95 47.8333333,95 L18.2071068,95 C18.0744985,95 17.9473216,94.9473216 17.8535534,94.8535534 L15.2587595,92.2587595 C15.1416022,92.1416022 15.1416022,91.9516527 15.2587595,91.8344954 C15.2727288,91.8205261 15.2880438,91.8079708 15.3044815,91.7970124 L18,90 L18,90 L18,89.0535184 C18,89.0200831 17.9832899,88.9888599 17.95547,88.9703133 L15.3744226,87.2496151 C15.236564,87.1577094 15.1993119,86.9714485 15.2912176,86.8335899 C15.3131881,86.8006343 15.3414669,86.7723554 15.3744226,86.7503849 L17.95547,85.0296867 C17.9832899,85.0111401 18,84.9799169 18,84.9464816 L18,84.0535184 C18,84.0200831 17.9832899,83.9888599 17.95547,83.9703133 L15.3044815,82.2029876 C15.1666229,82.1110819 15.1293707,81.9248211 15.2212764,81.7869625 C15.2322349,81.7705248 15.2447902,81.7552098 15.2587595,81.7412405 L17.9707107,79.0292893 C17.9894643,79.0105357 18,78.9851003 18,78.9585786 L18,78.0720759 C18,78.0290329 17.972457,77.990819 17.9316228,77.9772076 L15.5819146,77.1939715 C15.4247316,77.1415772 15.3397836,76.9716812 15.3921779,76.8144982 C15.4132743,76.7512089 15.4548645,76.696757 15.5103728,76.6597514 L17.8740377,75.0839749 C17.9561715,75.029219 18.0526753,75 18.1513878,75 Z" id="Rectangle" stroke="#4C0D08" fill="#4C0D08"></path>
                        <path d="M24,95 L43,95 L43,101 C43,102.104569 42.1045695,103 41,103 L26,103 C24.8954305,103 24,102.104569 24,101 L24,95 L24,95 Z" id="Rectangle" fill="#4C0D08"></path>
                        <polyline id="Path-15" stroke="#4C0D08" points="22 35.5 29 35.5 45 35.5"></polyline>
                        <g id="Group" transform="translate(28.000000, 35.000000)" stroke="#4C0D08">
                            <line x1="0.5" y1="40" x2="0.5" y2="0" id="Path-16"></line>
                            <line x1="10.5" y1="40" x2="10.5" y2="0" id="Path-16"></line>
                        </g>
                    </g>
                    <path d="M218.1361,132.458785 C220.134458,130.626957 210.454607,129 206,129 C193.297451,129 183,139.297451 183,152 C183,157.1391 184.685474,161.884537 187.533792,165.713679 C190.38211,169.542821 185.261246,147.282295 194,140 C206,130 216.137743,134.290613 218.1361,132.458785 Z" id="Oval" fill="#0B0C0A" opacity="0.2"></path>
                </g>
            </g>
        </g>
    </g>
</svg>