<?xml version="1.0" encoding="UTF-8"?>
<svg width="225px" height="222px" viewBox="0 0 225 222" version="1.1" xmlns="http://www.w3.org/2000/svg" xmlns:xlink="http://www.w3.org/1999/xlink">
    <title>Combined Shape</title>
    <g id="Ideas" stroke="none" stroke-width="1" fill="none" fill-rule="evenodd">
        <g id="Artboard" transform="translate(-1176.000000, -941.000000)" fill="#A9897B">
            <path d="M1288.5,941 C1350.63203,941 1401,991.367966 1401,1053.5 C1401,1105.64239 1365.52641,1149.49948 1317.39616,1162.25434 C1315.79842,1159.98089 1315,1157.22997 1315,1154 L1315,1154 L1315,1119 C1315,1113.11895 1312.17958,1107.89664 1307.81743,1104.61283 C1321.45162,1102.57816 1334.09619,1098.22197 1343,1091 C1355.15522,1081.14077 1360,1065.66047 1360,1051 C1360,1039.29071 1357,1026 1347.13491,1019.51709 C1344.66878,1017.89646 1350.27133,1015.26688 1351,1006 C1351.48578,999.822083 1350.15245,994.155416 1347,989 C1339.03283,989.829738 1333.6995,990.829738 1331,992 C1322.294,995.774143 1318.47208,1000.99533 1315.64521,1000.10228 C1307.2752,997.458072 1298.10896,996 1288.5,996 C1278.11168,996 1268.2408,997.704186 1259.33407,1000.76895 C1256.43257,1001.76733 1255.8513,997.303067 1247,993 C1244.52546,991.797002 1238.52546,990.463668 1229,989 C1226.37231,994.650621 1225.03898,1000.31729 1225,1006 C1224.94153,1014.52407 1228.61272,1018.18681 1227,1020 C1219.14598,1028.8303 1216,1039.49296 1216,1051 C1216,1064.78858 1221.87741,1081.34694 1233,1091 C1241.8411,1098.67301 1253.81572,1102.75509 1267.14366,1104.64117 C1262.80371,1107.92762 1260,1113.13639 1260,1119 C1254.1764,1122.78857 1247.1764,1123.1219 1239,1120 C1233.25523,1117.80654 1228.86161,1107.35142 1220,1101 C1216.24907,1098.31158 1213.5294,1097.63137 1208,1098 C1204.31373,1098.24575 1203.31373,1099.57908 1205,1102 C1208.10805,1104.25936 1210.44138,1106.25936 1212,1108 C1217.31904,1113.94022 1219.8644,1121.68642 1224,1127 C1227.37957,1131.34219 1232.56738,1133.71735 1235,1135 C1241.71787,1138.54215 1250.0512,1138.54215 1260,1135 L1260,1135 L1260,1154 C1259.57683,1156.9622 1258.75074,1159.52149 1257.52173,1161.67786 C1210.45275,1148.22644 1176,1104.88665 1176,1053.5 C1176,991.367966 1226.36797,941 1288.5,941 Z" id="Combined-Shape"></path>
        </g>
    </g>
</svg>