<svg xmlns="http://www.w3.org/2000/svg" width="25" height="50" viewBox="0 0 25 50">
    <g fill="none" fill-rule="evenodd">
        <path fill="#F7F2F0" d="M0 0H834V1924H0z" transform="translate(-519 -1784)"/>
        <path fill="#FFF" d="M-5 1750H834V1924H-5z" transform="translate(-519 -1784)"/>
        <g fill-rule="nonzero" transform="translate(-519 -1784) translate(519 1784)">
            <rect width="25" height="50" fill="#E3C4B4" rx="11"/>
            <path fill="#A9897B" d="M12.5 0h10.507C24.107 0 25 .883 25 1.971V48.03C25 49.117 24.108 50 23.007 50H12.5V0z" opacity=".471"/>
            <path fill="#EFE6E1" d="M2.083 5.556H22.222V43.75H2.083z"/>
            <path fill="#4C0D08" fill-opacity=".6" d="M2.083 5.556H3.083V43.75H2.083z"/>
            <path fill="#4C0D08" fill-opacity=".6" d="M2.083 5.556H22.222V6.556H2.083z"/>
            <rect width="4.861" height="1.389" x="9.722" y="2.778" fill="#E3C4B4" rx=".694"/>
            <path fill="#4C0D08" fill-opacity=".6" d="M14.183 2.778c.16 0 .302.09.4.234-.014-.002-.029-.002-.044-.002h-3.925c-.295 0-.535.311-.535.695 0 .177.05.339.135.462-.275-.03-.492-.328-.492-.694 0-.384.24-.695.535-.695h3.926z"/>
            <circle cx="12.5" cy="2.083" r="1" fill="#E3C4B4"/>
            <path fill="#4C0D08" fill-opacity=".6" d="M12.5 1.389c.384 0 .694.31.694.694 0 .02 0 .041-.002.061-.028-.294-.275-.524-.576-.524-.32 0-.579.26-.579.58 0 .3.23.547.523.575l-.02.002h-.04c-.384 0-.694-.31-.694-.694 0-.383.31-.694.694-.694z"/>
            <circle cx="12.153" cy="46.875" r="2.431" fill="#A9897B"/>
            <path fill="#4C0D08" fill-opacity=".6" d="M12.153 44.444c1.342 0 2.43 1.089 2.43 2.431 0 .033 0 .067-.002.1-.05-1.191-1.03-2.142-2.234-2.142-1.235 0-2.236 1.001-2.236 2.236 0 1.204.95 2.185 2.142 2.235h-.04l-.06.002c-1.343 0-2.43-1.089-2.43-2.431s1.087-2.43 2.43-2.43z"/>
        </g>
    </g>
</svg>
