<?xml version="1.0" encoding="UTF-8"?>
<svg width="348px" height="58px" viewBox="0 0 348 58" version="1.1" xmlns="http://www.w3.org/2000/svg" xmlns:xlink="http://www.w3.org/1999/xlink">
    <title>Front Shadows</title>
    <defs>
        <linearGradient x1="50%" y1="0%" x2="50%" y2="60.4107481%" id="linearGradient-1">
            <stop stop-color="#EFE6E1" stop-opacity="0.6" offset="0%"></stop>
            <stop stop-color="#EFE6E1" offset="100%"></stop>
        </linearGradient>
        <path d="M266,10 C268.465557,10 270.699552,11.4320698 272.325066,13.7517689 C275.031392,11.2287699 278.329359,10.36361 280.397276,11.8721181 C281.841282,12.9255035 282.374292,14.9092953 282.035208,17.1561462 C283.457624,15.7935408 285.164656,15 287,15 C289.935993,15 292.543629,17.0306924 294.18645,20.1727494 C294.601838,20.0605641 295.042962,20 295.5,20 C297.985281,20 300,21.790861 300,24 C300,25.5084176 299.060684,26.8218229 297.673625,27.5032632 C297.88427,27.9650943 298,28.4705337 298,29 C298,29.9713945 297.610453,30.8619147 296.962643,31.5548646 C299.433488,32.7465432 301,34.5198711 301,36.5 C301,40.0898509 295.851275,43 289.5,43 C285.77316,43 282.46038,41.9979834 280.358948,40.4445921 C278.861933,42.0503799 277.007742,43 275,43 C272.102872,43 269.525465,41.022714 267.879296,37.9514423 C265.782684,39.2124275 262.804065,40 259.5,40 C253.148725,40 248,37.0898509 248,33.5 C248,30.3039221 252.081141,27.6466104 257.45859,27.1021013 C257.160696,25.8133748 257,24.4337943 257,23 C257,15.8202983 261.029437,10 266,10 Z" id="path-2"></path>
        <filter x="-4.7%" y="-7.6%" width="109.4%" height="115.2%" filterUnits="objectBoundingBox" id="filter-3">
            <feMorphology radius="1" operator="erode" in="SourceAlpha" result="shadowSpreadInner1"></feMorphology>
            <feGaussianBlur stdDeviation="1.5" in="shadowSpreadInner1" result="shadowBlurInner1"></feGaussianBlur>
            <feOffset dx="0" dy="1" in="shadowBlurInner1" result="shadowOffsetInner1"></feOffset>
            <feComposite in="shadowOffsetInner1" in2="SourceAlpha" operator="arithmetic" k2="-1" k3="1" result="shadowInnerInner1"></feComposite>
            <feColorMatrix values="0 0 0 0 1   0 0 0 0 1   0 0 0 0 1  0 0 0 0.3 0" type="matrix" in="shadowInnerInner1"></feColorMatrix>
        </filter>
        <linearGradient x1="50%" y1="0%" x2="50%" y2="100%" id="linearGradient-4">
            <stop stop-color="#EFE6E1" stop-opacity="0.6" offset="0%"></stop>
            <stop stop-color="#EFE6E1" offset="100%"></stop>
        </linearGradient>
        <path d="M219,4 C222.049069,4 224.64282,6.22794384 225.602845,9.33708099 C226.903067,8.4853042 228.402956,8 230,8 C234.970563,8 239,12.7010101 239,18.5 C239,19.3871211 238.905701,20.2485469 238.72816,21.0713781 C244.501908,21.7366636 249,27.0473614 249,33.5 C249,40.4035594 243.851275,46 237.5,46 C235.814274,46 234.213262,45.6057569 232.770747,44.8974694 C230.678335,47.9914058 227.304968,50 223.5,50 C220.390941,50 217.570045,48.6589404 215.500206,46.479966 C213.429955,48.6589404 210.609059,50 207.5,50 C203.617472,50 200.18432,47.9086854 198.101986,44.7058841 C197.285661,44.8968635 196.484635,45 195.775,45 C192.585556,45 190,42.7548397 190,39.9852941 C190,39.0135237 190.469136,37.9868192 191.215967,37.06337 C190.45381,36.2138469 190,35.1455899 190,33.9852941 C190,31.8175397 192.334487,29.3764248 194.878398,28.4179204 C193.07155,26.5909055 192,23.4085826 192,20.1 C192,15 194.329114,12 199.860759,12 C203.736559,12 209.613337,13.3384998 212.784364,15.6785873 C212.282661,14.5783371 212,13.3268937 212,12 C212,7.581722 215.134007,4 219,4 Z" id="path-5"></path>
        <filter x="-4.2%" y="-5.4%" width="108.5%" height="110.9%" filterUnits="objectBoundingBox" id="filter-6">
            <feMorphology radius="1" operator="erode" in="SourceAlpha" result="shadowSpreadInner1"></feMorphology>
            <feGaussianBlur stdDeviation="1.5" in="shadowSpreadInner1" result="shadowBlurInner1"></feGaussianBlur>
            <feOffset dx="0" dy="1" in="shadowBlurInner1" result="shadowOffsetInner1"></feOffset>
            <feComposite in="shadowOffsetInner1" in2="SourceAlpha" operator="arithmetic" k2="-1" k3="1" result="shadowInnerInner1"></feComposite>
            <feColorMatrix values="0 0 0 0 1   0 0 0 0 1   0 0 0 0 1  0 0 0 0.3 0" type="matrix" in="shadowInnerInner1"></feColorMatrix>
        </filter>
        <path d="M318,12 C321.049069,12 323.64282,14.2279438 324.602845,17.337081 C325.903067,16.4853042 327.402956,16 329,16 C333.970563,16 338,20.7010101 338,26.5 C338,27.3871211 337.905701,28.2485469 337.72816,29.0713781 C343.501908,29.7366636 348,35.0473614 348,41.5 C348,48.4035594 342.851275,54 336.5,54 C334.814274,54 333.213262,53.6057569 331.770747,52.8974694 C329.678335,55.9914058 326.304968,58 322.5,58 C319.390941,58 316.570045,56.6589404 314.500206,54.479966 C312.429955,56.6589404 309.609059,58 306.5,58 C302.617472,58 299.18432,55.9086854 297.101986,52.7058841 C296.285661,52.8968635 295.484635,53 294.775,53 C291.585556,53 289,50.7548397 289,47.9852941 C289,47.0135237 289.469136,45.9868192 290.215967,45.06337 C289.45381,44.2138469 289,43.1455899 289,41.9852941 C289,39.8175397 291.334487,37.3764248 293.878398,36.4179204 C292.07155,34.5909055 291,31.4085826 291,28.1 C291,23 293.329114,20 298.860759,20 C302.736559,20 308.613337,21.3384998 311.784364,23.6785873 C311.282661,22.5783371 311,21.3268937 311,20 C311,15.581722 314.134007,12 318,12 Z" id="path-7"></path>
        <filter x="-4.2%" y="-5.4%" width="108.5%" height="110.9%" filterUnits="objectBoundingBox" id="filter-8">
            <feMorphology radius="1" operator="erode" in="SourceAlpha" result="shadowSpreadInner1"></feMorphology>
            <feGaussianBlur stdDeviation="1.5" in="shadowSpreadInner1" result="shadowBlurInner1"></feGaussianBlur>
            <feOffset dx="0" dy="1" in="shadowBlurInner1" result="shadowOffsetInner1"></feOffset>
            <feComposite in="shadowOffsetInner1" in2="SourceAlpha" operator="arithmetic" k2="-1" k3="1" result="shadowInnerInner1"></feComposite>
            <feColorMatrix values="0 0 0 0 1   0 0 0 0 1   0 0 0 0 1  0 0 0 0.3 0" type="matrix" in="shadowInnerInner1"></feColorMatrix>
        </filter>
        <path d="M172,12 C174.465557,12 176.699552,13.4320698 178.325066,15.7517689 C181.031392,13.2287699 184.329359,12.36361 186.397276,13.8721181 C187.841282,14.9255035 188.374292,16.9092953 188.035208,19.1561462 C189.457624,17.7935408 191.164656,17 193,17 C195.935993,17 198.543629,19.0306924 200.18645,22.1727494 C200.601838,22.0605641 201.042962,22 201.5,22 C203.985281,22 206,23.790861 206,26 C206,27.5084176 205.060684,28.8218229 203.673625,29.5032632 C203.88427,29.9650943 204,30.4705337 204,31 C204,31.9713945 203.610453,32.8619147 202.962643,33.5548646 C205.433488,34.7465432 207,36.5198711 207,38.5 C207,42.0898509 201.851275,45 195.5,45 C191.77316,45 188.46038,43.9979834 186.358948,42.4445921 C184.861933,44.0503799 183.007742,45 181,45 C178.102872,45 175.525465,43.022714 173.879296,39.9514423 C171.782684,41.2124275 168.804065,42 165.5,42 C159.148725,42 154,39.0898509 154,35.5 C154,32.3039221 158.081141,29.6466104 163.45859,29.1021013 C163.160696,27.8133748 163,26.4337943 163,25 C163,17.8202983 167.029437,12 172,12 Z" id="path-9"></path>
        <filter x="-4.7%" y="-7.6%" width="109.4%" height="115.2%" filterUnits="objectBoundingBox" id="filter-10">
            <feMorphology radius="1" operator="erode" in="SourceAlpha" result="shadowSpreadInner1"></feMorphology>
            <feGaussianBlur stdDeviation="1.5" in="shadowSpreadInner1" result="shadowBlurInner1"></feGaussianBlur>
            <feOffset dx="0" dy="1" in="shadowBlurInner1" result="shadowOffsetInner1"></feOffset>
            <feComposite in="shadowOffsetInner1" in2="SourceAlpha" operator="arithmetic" k2="-1" k3="1" result="shadowInnerInner1"></feComposite>
            <feColorMatrix values="0 0 0 0 1   0 0 0 0 1   0 0 0 0 1  0 0 0 0.3 0" type="matrix" in="shadowInnerInner1"></feColorMatrix>
        </filter>
        <path d="M18,15 C20.4655569,15 22.6995523,16.4320698 24.3250657,18.7517689 C27.0313918,16.2287699 30.3293589,15.36361 32.3972763,16.8721181 C33.8412818,17.9255035 34.3742923,19.9092953 34.0352075,22.1561462 C35.4576245,20.7935408 37.1646556,20 39,20 C41.9359929,20 44.5436288,22.0306924 46.1864499,25.1727494 C46.6018381,25.0605641 47.0429622,25 47.5,25 C49.9852814,25 52,26.790861 52,29 C52,30.5084176 51.0606844,31.8218229 49.673625,32.5032632 C49.8842703,32.9650943 50,33.4705337 50,34 C50,34.9713945 49.6104533,35.8619147 48.9626429,36.5548646 C51.4334877,37.7465432 53,39.5198711 53,41.5 C53,45.0898509 47.8512746,48 41.5,48 C37.7731602,48 34.4603798,46.9979834 32.3589479,45.4445921 C30.861933,47.0503799 29.0077419,48 27,48 C24.102872,48 21.5254655,46.022714 19.8792959,42.9514423 C17.7826841,44.2124275 14.8040648,45 11.5,45 C5.14872538,45 0,42.0898509 0,38.5 C0,35.3039221 4.08114115,32.6466104 9.45858956,32.1021013 C9.16069608,30.8133748 9,29.4337943 9,28 C9,20.8202983 13.0294373,15 18,15 Z" id="path-11"></path>
        <filter x="-4.7%" y="-7.6%" width="109.4%" height="115.2%" filterUnits="objectBoundingBox" id="filter-12">
            <feMorphology radius="1" operator="erode" in="SourceAlpha" result="shadowSpreadInner1"></feMorphology>
            <feGaussianBlur stdDeviation="1.5" in="shadowSpreadInner1" result="shadowBlurInner1"></feGaussianBlur>
            <feOffset dx="0" dy="1" in="shadowBlurInner1" result="shadowOffsetInner1"></feOffset>
            <feComposite in="shadowOffsetInner1" in2="SourceAlpha" operator="arithmetic" k2="-1" k3="1" result="shadowInnerInner1"></feComposite>
            <feColorMatrix values="0 0 0 0 1   0 0 0 0 1   0 0 0 0 1  0 0 0 0.3 0" type="matrix" in="shadowInnerInner1"></feColorMatrix>
        </filter>
        <path d="M125,6 C128.049069,6 130.64282,8.22794384 131.602845,11.337081 C132.903067,10.4853042 134.402956,10 136,10 C140.970563,10 145,14.7010101 145,20.5 C145,21.3871211 144.905701,22.2485469 144.72816,23.0713781 C150.501908,23.7366636 155,29.0473614 155,35.5 C155,42.4035594 149.851275,48 143.5,48 C141.814274,48 140.213262,47.6057569 138.770747,46.8974694 C136.678335,49.9914058 133.304968,52 129.5,52 C126.390941,52 123.570045,50.6589404 121.500206,48.479966 C119.429955,50.6589404 116.609059,52 113.5,52 C109.617472,52 106.18432,49.9086854 104.101986,46.7058841 C103.285661,46.8968635 102.484635,47 101.775,47 C98.5855556,47 96,44.7548397 96,41.9852941 C96,41.0135237 96.4691358,39.9868192 97.2159675,39.06337 C96.4538102,38.2138469 96,37.1455899 96,35.9852941 C96,33.8175397 98.3344869,31.3764248 100.878398,30.4179204 C99.0715499,28.5909055 98,25.4085826 98,22.1 C98,17 100.329114,14 105.860759,14 C109.736559,14 115.613337,15.3384998 118.784364,17.6785873 C118.282661,16.5783371 118,15.3268937 118,14 C118,9.581722 121.134007,6 125,6 Z" id="path-13"></path>
        <filter x="-4.2%" y="-5.4%" width="108.5%" height="110.9%" filterUnits="objectBoundingBox" id="filter-14">
            <feMorphology radius="1" operator="erode" in="SourceAlpha" result="shadowSpreadInner1"></feMorphology>
            <feGaussianBlur stdDeviation="1.5" in="shadowSpreadInner1" result="shadowBlurInner1"></feGaussianBlur>
            <feOffset dx="0" dy="1" in="shadowBlurInner1" result="shadowOffsetInner1"></feOffset>
            <feComposite in="shadowOffsetInner1" in2="SourceAlpha" operator="arithmetic" k2="-1" k3="1" result="shadowInnerInner1"></feComposite>
            <feColorMatrix values="0 0 0 0 1   0 0 0 0 1   0 0 0 0 1  0 0 0 0.3 0" type="matrix" in="shadowInnerInner1"></feColorMatrix>
        </filter>
        <path d="M71,0 C74.0490692,0 76.6428197,2.22794384 77.6028448,5.33708099 C78.9030674,4.4853042 80.4029556,4 82,4 C86.9705627,4 91,8.70101013 91,14.5 C91,15.3871211 90.9057013,16.2485469 90.7281604,17.0713781 C96.5019085,17.7366636 101,23.0473614 101,29.5 C101,36.4035594 95.8512746,42 89.5,42 C87.814274,42 86.213262,41.6057569 84.7707467,40.8974694 C82.6783349,43.9914058 79.3049683,46 75.5,46 C72.3909409,46 69.5700454,44.6589404 67.5002065,42.479966 C65.4299546,44.6589404 62.6090591,46 59.5,46 C55.6174717,46 52.1843199,43.9086854 50.1019863,40.7058841 C49.2856608,40.8968635 48.4846354,41 47.775,41 C44.5855556,41 42,38.7548397 42,35.9852941 C42,35.0135237 42.4691358,33.9868192 43.2159675,33.06337 C42.4538102,32.2138469 42,31.1455899 42,29.9852941 C42,27.8175397 44.3344869,25.3764248 46.8783977,24.4179204 C45.0715499,22.5909055 44,19.4085826 44,16.1 C44,11 46.3291139,8 51.8607595,8 C55.7365586,8 61.6133371,9.33849978 64.7843643,11.6785873 C64.2826611,10.5783371 64,9.3268937 64,8 C64,3.581722 67.1340068,0 71,0 Z" id="path-15"></path>
        <filter x="-4.2%" y="-5.4%" width="108.5%" height="110.9%" filterUnits="objectBoundingBox" id="filter-16">
            <feMorphology radius="1" operator="erode" in="SourceAlpha" result="shadowSpreadInner1"></feMorphology>
            <feGaussianBlur stdDeviation="1.5" in="shadowSpreadInner1" result="shadowBlurInner1"></feGaussianBlur>
            <feOffset dx="0" dy="1" in="shadowBlurInner1" result="shadowOffsetInner1"></feOffset>
            <feComposite in="shadowOffsetInner1" in2="SourceAlpha" operator="arithmetic" k2="-1" k3="1" result="shadowInnerInner1"></feComposite>
            <feColorMatrix values="0 0 0 0 1   0 0 0 0 1   0 0 0 0 1  0 0 0 0.3 0" type="matrix" in="shadowInnerInner1"></feColorMatrix>
        </filter>
    </defs>
    <g id="Ideas" stroke="none" stroke-width="1" fill="none" fill-rule="evenodd">
        <g id="Rocket" transform="translate(-610.000000, -170.000000)">
            <g id="Front-Shadows" transform="translate(610.000000, 170.000000)">
                <g id="Combined-Shape">
                    <use fill="url(#linearGradient-1)" fill-rule="evenodd" xlink:href="#path-2"></use>
                    <use fill="black" fill-opacity="1" filter="url(#filter-3)" xlink:href="#path-2"></use>
                </g>
                <g id="Combined-Shape">
                    <use fill="url(#linearGradient-4)" fill-rule="evenodd" xlink:href="#path-5"></use>
                    <use fill="black" fill-opacity="1" filter="url(#filter-6)" xlink:href="#path-5"></use>
                </g>
                <g id="Combined-Shape">
                    <use fill="url(#linearGradient-4)" fill-rule="evenodd" xlink:href="#path-7"></use>
                    <use fill="black" fill-opacity="1" filter="url(#filter-8)" xlink:href="#path-7"></use>
                </g>
                <g id="Combined-Shape">
                    <use fill="url(#linearGradient-1)" fill-rule="evenodd" xlink:href="#path-9"></use>
                    <use fill="black" fill-opacity="1" filter="url(#filter-10)" xlink:href="#path-9"></use>
                </g>
                <g id="Combined-Shape">
                    <use fill="url(#linearGradient-1)" fill-rule="evenodd" xlink:href="#path-11"></use>
                    <use fill="black" fill-opacity="1" filter="url(#filter-12)" xlink:href="#path-11"></use>
                </g>
                <g id="Combined-Shape">
                    <use fill="url(#linearGradient-4)" fill-rule="evenodd" xlink:href="#path-13"></use>
                    <use fill="black" fill-opacity="1" filter="url(#filter-14)" xlink:href="#path-13"></use>
                </g>
                <g id="Combined-Shape">
                    <use fill="url(#linearGradient-4)" fill-rule="evenodd" xlink:href="#path-15"></use>
                    <use fill="black" fill-opacity="1" filter="url(#filter-16)" xlink:href="#path-15"></use>
                </g>
            </g>
        </g>
    </g>
</svg>