<?xml version="1.0" encoding="UTF-8"?>
<svg width="42px" height="36px" viewBox="0 0 42 36" version="1.1" xmlns="http://www.w3.org/2000/svg" xmlns:xlink="http://www.w3.org/1999/xlink">
    <title>Small_smoke 2</title>
    <defs>
        <linearGradient x1="50%" y1="0%" x2="50%" y2="64.7081163%" id="linearGradient-1">
            <stop stop-color="#EFE6E1" stop-opacity="0.3" offset="0%"></stop>
            <stop stop-color="#EFE6E1" offset="100%"></stop>
        </linearGradient>
        <path d="M860.067767,166 C860.196742,169.788653 860.491339,172.840167 860.951556,175.154542 C861.933961,175.208323 862.879019,175.492874 863.726346,176.028032 C865.324444,177.037438 866.282234,178.753489 866.550617,180.733379 C868.477876,179.71358 870.566209,179.547022 872.299573,180.478574 C874.554085,181.690283 875.6207,184.444048 875.307922,187.487169 C875.547663,187.427444 875.799886,187.396226 876.06,187.396226 C877.683717,187.396226 879,188.61266 879,190.113208 C879,191.187673 878.325107,192.116467 877.345706,192.557298 C877.864616,193.241285 878.16,194.029247 878.16,194.867925 C878.16,197.493882 875.264178,199.622642 871.692,199.622642 C869.22969,199.622642 867.088741,198.611188 865.99606,197.122638 C865.891583,197.116876 865.787336,197.107388 865.683631,197.09491 C864.009938,198.335406 861.601149,199.113208 858.924,199.113208 C858.23864,199.113208 857.570868,199.062232 856.928506,198.965576 C855.636808,200.450211 854.066049,201.320755 852.372,201.320755 C851.872298,201.320755 851.383323,201.245009 850.909067,201.100099 C849.524216,201.671115 847.896845,202 846.156,202 C841.099281,202 837,199.22501 837,195.801887 C837,194.176659 837.924041,192.69753 839.435875,191.592122 C839.116917,190.921205 838.831822,190.203088 838.58889,189.447402 C836.969031,184.407941 838.670803,181.683692 841.362195,180.799747 C842.799584,180.327692 844.228542,180.47601 845.494874,181.484352 C846.881292,177.603712 849.442272,175 852.372,175 C853.746163,175 855.039201,175.572815 856.168111,176.581559 C856.250034,176.526755 856.332454,176.473428 856.415327,176.421595 C856.968967,173.943977 857.433177,170.469799 857.807907,166 L860.067767,166 Z" id="path-2"></path>
        <filter x="-7.1%" y="-8.3%" width="114.3%" height="116.7%" filterUnits="objectBoundingBox" id="filter-3">
            <feGaussianBlur stdDeviation="1.5" in="SourceAlpha" result="shadowBlurInner1"></feGaussianBlur>
            <feOffset dx="0" dy="-3" in="shadowBlurInner1" result="shadowOffsetInner1"></feOffset>
            <feComposite in="shadowOffsetInner1" in2="SourceAlpha" operator="arithmetic" k2="-1" k3="1" result="shadowInnerInner1"></feComposite>
            <feColorMatrix values="0 0 0 0 0.662745098   0 0 0 0 0.537254902   0 0 0 0 0.482352941  0 0 0 0.6 0" type="matrix" in="shadowInnerInner1" result="shadowMatrixInner1"></feColorMatrix>
            <feGaussianBlur stdDeviation="1.5" in="SourceAlpha" result="shadowBlurInner2"></feGaussianBlur>
            <feOffset dx="0" dy="1" in="shadowBlurInner2" result="shadowOffsetInner2"></feOffset>
            <feComposite in="shadowOffsetInner2" in2="SourceAlpha" operator="arithmetic" k2="-1" k3="1" result="shadowInnerInner2"></feComposite>
            <feColorMatrix values="0 0 0 0 1   0 0 0 0 1   0 0 0 0 1  0 0 0 0.6 0" type="matrix" in="shadowInnerInner2" result="shadowMatrixInner2"></feColorMatrix>
            <feMerge>
                <feMergeNode in="shadowMatrixInner1"></feMergeNode>
                <feMergeNode in="shadowMatrixInner2"></feMergeNode>
            </feMerge>
        </filter>
    </defs>
    <g id="Ideas" stroke="none" stroke-width="1" fill="none" fill-rule="evenodd">
        <g id="Rocket" transform="translate(-837.000000, -166.000000)">
            <g id="Small_smoke-2">
                <use fill="url(#linearGradient-1)" fill-rule="evenodd" xlink:href="#path-2"></use>
                <use fill="black" fill-opacity="1" filter="url(#filter-3)" xlink:href="#path-2"></use>
            </g>
        </g>
    </g>
</svg>