<svg xmlns="http://www.w3.org/2000/svg" width="60" height="60" viewBox="0 0 60 60">
    <g fill="none" fill-rule="evenodd">
        <path fill="#FFF" d="M0 1904H1442V2258H0z" transform="translate(-1249 -2034)"/>
        <g transform="translate(-1249 -2034) translate(1249 2034)">
            <rect width="60" height="60" fill="#A9897B" rx="5"/>
            <path fill="#E3C4B4" d="M5 0h50c2.761 0 5 2.239 5 5v14.984C48.99 22.661 38.643 24 28.956 24 19.269 24 9.616 22.661 0 19.984V5c0-2.761 2.239-5 5-5z"/>
            <path fill="#FFF" fill-rule="nonzero" d="M19.796 21.672c2.124 0 3.636-1.368 3.636-3.276 0-1.944-1.512-3.312-3.636-3.312-2.16 0-3.672 1.368-3.672 3.312 0 1.908 1.512 3.276 3.672 3.276zM22.964 45V24.516h-6.372V45h6.372zm11.721 0V31.32c1.26-1.188 2.124-1.836 3.564-1.836 1.62 0 2.376.828 2.376 3.636V45h6.408V32.328c0-5.112-1.908-8.316-6.372-8.316-2.772 0-4.86 1.404-6.552 3.06h-.144l-.432-2.556h-5.22V45h6.372z"/>
        </g>
    </g>
</svg>
